<svg width="262" height="220" viewBox="0 0 262 220" fill="none" xmlns="http://www.w3.org/2000/svg">
<rect width="262" height="220" fill="#F3F5F7"/>
<path d="M74 86V82.7081C74 81.0725 73.0042 79.6017 71.4856 78.9942L67.4173 77.3669C65.4857 76.5943 63.2844 77.4312 62.354 79.292L62 80C62 80 57 79 53 75C49 71 48 66 48 66L48.708 65.646C50.5688 64.7156 51.4057 62.5143 50.6331 60.5827L49.0058 56.5144C48.3983 54.9958 46.9275 54 45.2919 54H42C39.7909 54 38 55.7909 38 58C38 75.6731 52.3269 90 70 90C72.2091 90 74 88.2091 74 86Z" stroke="#141718" stroke-width="2.5" stroke-linejoin="round"/>
<path d="M34.46 129.9C35.74 128.793 36.7467 127.887 37.48 127.18C38.2267 126.46 38.8467 125.713 39.34 124.94C39.8333 124.167 40.08 123.393 40.08 122.62C40.08 121.82 39.8867 121.193 39.5 120.74C39.1267 120.287 38.5333 120.06 37.72 120.06C36.9333 120.06 36.32 120.313 35.88 120.82C35.4533 121.313 35.2267 121.98 35.2 122.82H33C33.04 121.3 33.4933 120.14 34.36 119.34C35.24 118.527 36.3533 118.12 37.7 118.12C39.1533 118.12 40.2867 118.52 41.1 119.32C41.9267 120.12 42.34 121.187 42.34 122.52C42.34 123.48 42.0933 124.407 41.6 125.3C41.12 126.18 40.54 126.973 39.86 127.68C39.1933 128.373 38.34 129.18 37.3 130.1L36.4 130.9H42.74V132.8H33.02V131.14L34.46 129.9ZM44.463 129.96V128.24L51.183 118.6H53.943V127.98H55.803V129.96H53.943V133H51.703V129.96H44.463ZM51.803 120.92L47.083 127.98H51.803V120.92ZM65.3922 114.12L59.9522 136.5H57.7122L63.1322 114.12H65.3922ZM77.2056 120.18L71.6456 133H69.3456L74.9656 120.42H67.5656V118.48H77.2056V120.18ZM89.2323 133.14C88.299 133.14 87.459 132.98 86.7123 132.66C85.9657 132.327 85.379 131.86 84.9523 131.26C84.5257 130.66 84.3123 129.96 84.3123 129.16H86.7523C86.8057 129.76 87.039 130.253 87.4523 130.64C87.879 131.027 88.4723 131.22 89.2323 131.22C90.019 131.22 90.6323 131.033 91.0723 130.66C91.5123 130.273 91.7323 129.78 91.7323 129.18C91.7323 128.713 91.5923 128.333 91.3123 128.04C91.0457 127.747 90.7057 127.52 90.2923 127.36C89.8923 127.2 89.3323 127.027 88.6123 126.84C87.7057 126.6 86.9657 126.36 86.3923 126.12C85.8323 125.867 85.3523 125.48 84.9523 124.96C84.5523 124.44 84.3523 123.747 84.3523 122.88C84.3523 122.08 84.5523 121.38 84.9523 120.78C85.3523 120.18 85.9123 119.72 86.6323 119.4C87.3523 119.08 88.1857 118.92 89.1323 118.92C90.479 118.92 91.579 119.26 92.4323 119.94C93.299 120.607 93.779 121.527 93.8723 122.7H91.3523C91.3123 122.193 91.0723 121.76 90.6323 121.4C90.1923 121.04 89.6123 120.86 88.8923 120.86C88.239 120.86 87.7057 121.027 87.2923 121.36C86.879 121.693 86.6723 122.173 86.6723 122.8C86.6723 123.227 86.799 123.58 87.0523 123.86C87.319 124.127 87.6523 124.34 88.0523 124.5C88.4523 124.66 88.999 124.833 89.6923 125.02C90.6123 125.273 91.359 125.527 91.9323 125.78C92.519 126.033 93.0123 126.427 93.4123 126.96C93.8257 127.48 94.0323 128.18 94.0323 129.06C94.0323 129.767 93.839 130.433 93.4523 131.06C93.079 131.687 92.5257 132.193 91.7923 132.58C91.0723 132.953 90.219 133.14 89.2323 133.14ZM106.703 121.98V133H104.423V131.7C104.063 132.153 103.589 132.513 103.003 132.78C102.429 133.033 101.816 133.16 101.163 133.16C100.296 133.16 99.516 132.98 98.8227 132.62C98.1427 132.26 97.6027 131.727 97.2027 131.02C96.816 130.313 96.6227 129.46 96.6227 128.46V121.98H98.8827V128.12C98.8827 129.107 99.1293 129.867 99.6227 130.4C100.116 130.92 100.789 131.18 101.643 131.18C102.496 131.18 103.169 130.92 103.663 130.4C104.169 129.867 104.423 129.107 104.423 128.12V121.98H106.703ZM111.991 123.6C112.378 123.093 112.904 122.667 113.571 122.32C114.238 121.973 114.991 121.8 115.831 121.8C116.791 121.8 117.664 122.04 118.451 122.52C119.251 122.987 119.878 123.647 120.331 124.5C120.784 125.353 121.011 126.333 121.011 127.44C121.011 128.547 120.784 129.54 120.331 130.42C119.878 131.287 119.251 131.967 118.451 132.46C117.664 132.94 116.791 133.18 115.831 133.18C114.991 133.18 114.244 133.013 113.591 132.68C112.938 132.333 112.404 131.907 111.991 131.4V138.24H109.711V121.98H111.991V123.6ZM118.691 127.44C118.691 126.68 118.531 126.027 118.211 125.48C117.904 124.92 117.491 124.5 116.971 124.22C116.464 123.927 115.918 123.78 115.331 123.78C114.758 123.78 114.211 123.927 113.691 124.22C113.184 124.513 112.771 124.94 112.451 125.5C112.144 126.06 111.991 126.72 111.991 127.48C111.991 128.24 112.144 128.907 112.451 129.48C112.771 130.04 113.184 130.467 113.691 130.76C114.211 131.053 114.758 131.2 115.331 131.2C115.918 131.2 116.464 131.053 116.971 130.76C117.491 130.453 117.904 130.013 118.211 129.44C118.531 128.867 118.691 128.2 118.691 127.44ZM125.546 123.6C125.932 123.093 126.459 122.667 127.126 122.32C127.792 121.973 128.546 121.8 129.386 121.8C130.346 121.8 131.219 122.04 132.006 122.52C132.806 122.987 133.432 123.647 133.886 124.5C134.339 125.353 134.566 126.333 134.566 127.44C134.566 128.547 134.339 129.54 133.886 130.42C133.432 131.287 132.806 131.967 132.006 132.46C131.219 132.94 130.346 133.18 129.386 133.18C128.546 133.18 127.799 133.013 127.146 132.68C126.492 132.333 125.959 131.907 125.546 131.4V138.24H123.266V121.98H125.546V123.6ZM132.246 127.44C132.246 126.68 132.086 126.027 131.766 125.48C131.459 124.92 131.046 124.5 130.526 124.22C130.019 123.927 129.472 123.78 128.886 123.78C128.312 123.78 127.766 123.927 127.246 124.22C126.739 124.513 126.326 124.94 126.006 125.5C125.699 126.06 125.546 126.72 125.546 127.48C125.546 128.24 125.699 128.907 126.006 129.48C126.326 130.04 126.739 130.467 127.246 130.76C127.766 131.053 128.312 131.2 128.886 131.2C129.472 131.2 130.019 131.053 130.526 130.76C131.046 130.453 131.459 130.013 131.766 129.44C132.086 128.867 132.246 128.2 132.246 127.44ZM141.6 133.18C140.56 133.18 139.62 132.947 138.78 132.48C137.94 132 137.28 131.333 136.8 130.48C136.32 129.613 136.08 128.613 136.08 127.48C136.08 126.36 136.327 125.367 136.82 124.5C137.314 123.633 137.987 122.967 138.84 122.5C139.694 122.033 140.647 121.8 141.7 121.8C142.754 121.8 143.707 122.033 144.56 122.5C145.414 122.967 146.087 123.633 146.58 124.5C147.074 125.367 147.32 126.36 147.32 127.48C147.32 128.6 147.067 129.593 146.56 130.46C146.054 131.327 145.36 132 144.48 132.48C143.614 132.947 142.654 133.18 141.6 133.18ZM141.6 131.2C142.187 131.2 142.734 131.06 143.24 130.78C143.76 130.5 144.18 130.08 144.5 129.52C144.82 128.96 144.98 128.28 144.98 127.48C144.98 126.68 144.827 126.007 144.52 125.46C144.214 124.9 143.807 124.48 143.3 124.2C142.794 123.92 142.247 123.78 141.66 123.78C141.074 123.78 140.527 123.92 140.02 124.2C139.527 124.48 139.134 124.9 138.84 125.46C138.547 126.007 138.4 126.68 138.4 127.48C138.4 128.667 138.7 129.587 139.3 130.24C139.914 130.88 140.68 131.2 141.6 131.2ZM151.854 123.58C152.188 123.02 152.628 122.587 153.174 122.28C153.734 121.96 154.394 121.8 155.154 121.8V124.16H154.574C153.681 124.16 153.001 124.387 152.534 124.84C152.081 125.293 151.854 126.08 151.854 127.2V133H149.574V121.98H151.854V123.58ZM159.91 123.84V129.94C159.91 130.353 160.003 130.653 160.19 130.84C160.39 131.013 160.723 131.1 161.19 131.1H162.59V133H160.79C159.763 133 158.977 132.76 158.43 132.28C157.883 131.8 157.61 131.02 157.61 129.94V123.84H156.31V121.98H157.61V119.24H159.91V121.98H162.59V123.84H159.91Z" fill="#141718"/>
<path d="M39.602 158.098C39.602 158.91 39.322 159.587 38.762 160.128C38.2113 160.66 37.3667 160.926 36.228 160.926H34.352V165H33.078V155.242H36.228C37.3293 155.242 38.1647 155.508 38.734 156.04C39.3127 156.572 39.602 157.258 39.602 158.098ZM36.228 159.876C36.9373 159.876 37.46 159.722 37.796 159.414C38.132 159.106 38.3 158.667 38.3 158.098C38.3 156.894 37.6093 156.292 36.228 156.292H34.352V159.876H36.228ZM44.9934 157.188C45.5721 157.188 46.0948 157.314 46.5614 157.566C47.0281 157.809 47.3921 158.177 47.6534 158.672C47.9241 159.167 48.0594 159.769 48.0594 160.478V165H46.7994V160.66C46.7994 159.895 46.6081 159.311 46.2254 158.91C45.8428 158.499 45.3201 158.294 44.6574 158.294C43.9854 158.294 43.4488 158.504 43.0474 158.924C42.6554 159.344 42.4594 159.955 42.4594 160.758V165H41.1854V154.64H42.4594V158.42C42.7114 158.028 43.0568 157.725 43.4954 157.51C43.9434 157.295 44.4428 157.188 44.9934 157.188ZM53.4865 165.126C52.7678 165.126 52.1145 164.963 51.5265 164.636C50.9478 164.309 50.4905 163.847 50.1545 163.25C49.8278 162.643 49.6645 161.943 49.6645 161.15C49.6645 160.366 49.8325 159.675 50.1685 159.078C50.5138 158.471 50.9805 158.009 51.5685 157.692C52.1565 157.365 52.8145 157.202 53.5425 157.202C54.2705 157.202 54.9285 157.365 55.5165 157.692C56.1045 158.009 56.5665 158.467 56.9025 159.064C57.2478 159.661 57.4205 160.357 57.4205 161.15C57.4205 161.943 57.2432 162.643 56.8885 163.25C56.5432 163.847 56.0718 164.309 55.4745 164.636C54.8772 164.963 54.2145 165.126 53.4865 165.126ZM53.4865 164.006C53.9438 164.006 54.3732 163.899 54.7745 163.684C55.1758 163.469 55.4978 163.147 55.7405 162.718C55.9925 162.289 56.1185 161.766 56.1185 161.15C56.1185 160.534 55.9972 160.011 55.7545 159.582C55.5118 159.153 55.1945 158.835 54.8025 158.63C54.4105 158.415 53.9858 158.308 53.5285 158.308C53.0618 158.308 52.6325 158.415 52.2405 158.63C51.8578 158.835 51.5498 159.153 51.3165 159.582C51.0832 160.011 50.9665 160.534 50.9665 161.15C50.9665 161.775 51.0785 162.303 51.3025 162.732C51.5358 163.161 51.8438 163.483 52.2265 163.698C52.6092 163.903 53.0292 164.006 53.4865 164.006ZM62.8336 157.188C63.7669 157.188 64.5229 157.473 65.1016 158.042C65.6802 158.602 65.9696 159.414 65.9696 160.478V165H64.7096V160.66C64.7096 159.895 64.5182 159.311 64.1356 158.91C63.7529 158.499 63.2302 158.294 62.5676 158.294C61.8956 158.294 61.3589 158.504 60.9576 158.924C60.5656 159.344 60.3696 159.955 60.3696 160.758V165H59.0956V157.328H60.3696V158.42C60.6216 158.028 60.9622 157.725 61.3916 157.51C61.8302 157.295 62.3109 157.188 62.8336 157.188ZM75.0507 160.87C75.0507 161.113 75.0367 161.369 75.0087 161.64H68.8767C68.9233 162.396 69.18 162.989 69.6467 163.418C70.1227 163.838 70.6967 164.048 71.3687 164.048C71.9193 164.048 72.3767 163.922 72.7407 163.67C73.114 163.409 73.3753 163.063 73.5247 162.634H74.8967C74.6913 163.371 74.2807 163.973 73.6647 164.44C73.0487 164.897 72.2833 165.126 71.3687 165.126C70.6407 165.126 69.9873 164.963 69.4087 164.636C68.8393 164.309 68.3913 163.847 68.0647 163.25C67.738 162.643 67.5747 161.943 67.5747 161.15C67.5747 160.357 67.7333 159.661 68.0507 159.064C68.368 158.467 68.8113 158.009 69.3807 157.692C69.9593 157.365 70.622 157.202 71.3687 157.202C72.0967 157.202 72.7407 157.361 73.3007 157.678C73.8607 157.995 74.29 158.434 74.5887 158.994C74.8967 159.545 75.0507 160.17 75.0507 160.87ZM73.7347 160.604C73.7347 160.119 73.6273 159.703 73.4127 159.358C73.198 159.003 72.904 158.737 72.5307 158.56C72.1667 158.373 71.7607 158.28 71.3127 158.28C70.6687 158.28 70.118 158.485 69.6607 158.896C69.2127 159.307 68.956 159.876 68.8907 160.604H73.7347ZM79.9887 161.136C79.9887 160.352 80.1474 159.666 80.4647 159.078C80.7821 158.481 81.2161 158.019 81.7667 157.692C82.3267 157.365 82.9474 157.202 83.6287 157.202C84.3007 157.202 84.8841 157.347 85.3787 157.636C85.8734 157.925 86.2421 158.289 86.4847 158.728V157.328H87.7727V165H86.4847V163.572C86.2327 164.02 85.8547 164.393 85.3507 164.692C84.8561 164.981 84.2774 165.126 83.6147 165.126C82.9334 165.126 82.3174 164.958 81.7667 164.622C81.2161 164.286 80.7821 163.815 80.4647 163.208C80.1474 162.601 79.9887 161.911 79.9887 161.136ZM86.4847 161.15C86.4847 160.571 86.3681 160.067 86.1347 159.638C85.9014 159.209 85.5841 158.882 85.1827 158.658C84.7907 158.425 84.3567 158.308 83.8807 158.308C83.4047 158.308 82.9707 158.42 82.5787 158.644C82.1867 158.868 81.8741 159.195 81.6407 159.624C81.4074 160.053 81.2907 160.557 81.2907 161.136C81.2907 161.724 81.4074 162.237 81.6407 162.676C81.8741 163.105 82.1867 163.437 82.5787 163.67C82.9707 163.894 83.4047 164.006 83.8807 164.006C84.3567 164.006 84.7907 163.894 85.1827 163.67C85.5841 163.437 85.9014 163.105 86.1347 162.676C86.3681 162.237 86.4847 161.729 86.4847 161.15ZM93.6637 157.188C94.597 157.188 95.353 157.473 95.9317 158.042C96.5103 158.602 96.7997 159.414 96.7997 160.478V165H95.5397V160.66C95.5397 159.895 95.3483 159.311 94.9657 158.91C94.583 158.499 94.0603 158.294 93.3977 158.294C92.7257 158.294 92.189 158.504 91.7877 158.924C91.3957 159.344 91.1997 159.955 91.1997 160.758V165H89.9257V157.328H91.1997V158.42C91.4517 158.028 91.7923 157.725 92.2217 157.51C92.6603 157.295 93.141 157.188 93.6637 157.188ZM98.4047 161.136C98.4047 160.352 98.5634 159.666 98.8807 159.078C99.1981 158.481 99.6321 158.019 100.183 157.692C100.743 157.365 101.368 157.202 102.059 157.202C102.656 157.202 103.211 157.342 103.725 157.622C104.238 157.893 104.63 158.252 104.901 158.7V154.64H106.189V165H104.901V163.558C104.649 164.015 104.275 164.393 103.781 164.692C103.286 164.981 102.707 165.126 102.045 165.126C101.363 165.126 100.743 164.958 100.183 164.622C99.6321 164.286 99.1981 163.815 98.8807 163.208C98.5634 162.601 98.4047 161.911 98.4047 161.136ZM104.901 161.15C104.901 160.571 104.784 160.067 104.551 159.638C104.317 159.209 104 158.882 103.599 158.658C103.207 158.425 102.773 158.308 102.297 158.308C101.821 158.308 101.387 158.42 100.995 158.644C100.603 158.868 100.29 159.195 100.057 159.624C99.8234 160.053 99.7067 160.557 99.7067 161.136C99.7067 161.724 99.8234 162.237 100.057 162.676C100.29 163.105 100.603 163.437 100.995 163.67C101.387 163.894 101.821 164.006 102.297 164.006C102.773 164.006 103.207 163.894 103.599 163.67C104 163.437 104.317 163.105 104.551 162.676C104.784 162.237 104.901 161.729 104.901 161.15ZM113.348 156.278V159.54H116.904V160.59H113.348V163.95H117.324V165H112.074V155.228H117.324V156.278H113.348ZM128.478 157.188C129.075 157.188 129.607 157.314 130.074 157.566C130.54 157.809 130.909 158.177 131.18 158.672C131.45 159.167 131.586 159.769 131.586 160.478V165H130.326V160.66C130.326 159.895 130.134 159.311 129.752 158.91C129.378 158.499 128.87 158.294 128.226 158.294C127.563 158.294 127.036 158.509 126.644 158.938C126.252 159.358 126.056 159.969 126.056 160.772V165H124.796V160.66C124.796 159.895 124.604 159.311 124.222 158.91C123.848 158.499 123.34 158.294 122.696 158.294C122.033 158.294 121.506 158.509 121.114 158.938C120.722 159.358 120.526 159.969 120.526 160.772V165H119.252V157.328H120.526V158.434C120.778 158.033 121.114 157.725 121.534 157.51C121.963 157.295 122.434 157.188 122.948 157.188C123.592 157.188 124.161 157.333 124.656 157.622C125.15 157.911 125.519 158.336 125.762 158.896C125.976 158.355 126.331 157.935 126.826 157.636C127.32 157.337 127.871 157.188 128.478 157.188ZM133.2 161.136C133.2 160.352 133.358 159.666 133.676 159.078C133.993 158.481 134.427 158.019 134.978 157.692C135.538 157.365 136.158 157.202 136.84 157.202C137.512 157.202 138.095 157.347 138.59 157.636C139.084 157.925 139.453 158.289 139.696 158.728V157.328H140.984V165H139.696V163.572C139.444 164.02 139.066 164.393 138.562 164.692C138.067 164.981 137.488 165.126 136.826 165.126C136.144 165.126 135.528 164.958 134.978 164.622C134.427 164.286 133.993 163.815 133.676 163.208C133.358 162.601 133.2 161.911 133.2 161.136ZM139.696 161.15C139.696 160.571 139.579 160.067 139.346 159.638C139.112 159.209 138.795 158.882 138.394 158.658C138.002 158.425 137.568 158.308 137.092 158.308C136.616 158.308 136.182 158.42 135.79 158.644C135.398 158.868 135.085 159.195 134.852 159.624C134.618 160.053 134.502 160.557 134.502 161.136C134.502 161.724 134.618 162.237 134.852 162.676C135.085 163.105 135.398 163.437 135.79 163.67C136.182 163.894 136.616 164.006 137.092 164.006C137.568 164.006 138.002 163.894 138.394 163.67C138.795 163.437 139.112 163.105 139.346 162.676C139.579 162.237 139.696 161.729 139.696 161.15ZM143.795 156.082C143.552 156.082 143.347 155.998 143.179 155.83C143.011 155.662 142.927 155.457 142.927 155.214C142.927 154.971 143.011 154.766 143.179 154.598C143.347 154.43 143.552 154.346 143.795 154.346C144.028 154.346 144.224 154.43 144.383 154.598C144.551 154.766 144.635 154.971 144.635 155.214C144.635 155.457 144.551 155.662 144.383 155.83C144.224 155.998 144.028 156.082 143.795 156.082ZM144.411 157.328V165H143.137V157.328H144.411ZM147.856 154.64V165H146.582V154.64H147.856ZM156.476 165.126C155.888 165.126 155.36 165.028 154.894 164.832C154.427 164.627 154.058 164.347 153.788 163.992C153.517 163.628 153.368 163.213 153.34 162.746H154.656C154.693 163.129 154.87 163.441 155.188 163.684C155.514 163.927 155.939 164.048 156.462 164.048C156.947 164.048 157.33 163.941 157.61 163.726C157.89 163.511 158.03 163.241 158.03 162.914C158.03 162.578 157.88 162.331 157.582 162.172C157.283 162.004 156.821 161.841 156.196 161.682C155.626 161.533 155.16 161.383 154.796 161.234C154.441 161.075 154.133 160.847 153.872 160.548C153.62 160.24 153.494 159.839 153.494 159.344C153.494 158.952 153.61 158.593 153.844 158.266C154.077 157.939 154.408 157.683 154.838 157.496C155.267 157.3 155.757 157.202 156.308 157.202C157.157 157.202 157.843 157.417 158.366 157.846C158.888 158.275 159.168 158.863 159.206 159.61H157.932C157.904 159.209 157.74 158.887 157.442 158.644C157.152 158.401 156.76 158.28 156.266 158.28C155.808 158.28 155.444 158.378 155.174 158.574C154.903 158.77 154.768 159.027 154.768 159.344C154.768 159.596 154.847 159.806 155.006 159.974C155.174 160.133 155.379 160.263 155.622 160.366C155.874 160.459 156.219 160.567 156.658 160.688C157.208 160.837 157.656 160.987 158.002 161.136C158.347 161.276 158.641 161.491 158.884 161.78C159.136 162.069 159.266 162.447 159.276 162.914C159.276 163.334 159.159 163.712 158.926 164.048C158.692 164.384 158.361 164.65 157.932 164.846C157.512 165.033 157.026 165.126 156.476 165.126ZM167.878 157.328V165H166.604V163.866C166.361 164.258 166.021 164.566 165.582 164.79C165.153 165.005 164.677 165.112 164.154 165.112C163.557 165.112 163.02 164.991 162.544 164.748C162.068 164.496 161.69 164.123 161.41 163.628C161.139 163.133 161.004 162.531 161.004 161.822V157.328H162.264V161.654C162.264 162.41 162.455 162.993 162.838 163.404C163.221 163.805 163.743 164.006 164.406 164.006C165.087 164.006 165.624 163.796 166.016 163.376C166.408 162.956 166.604 162.345 166.604 161.542V157.328H167.878ZM171.303 158.742C171.555 158.303 171.929 157.939 172.423 157.65C172.927 157.351 173.511 157.202 174.173 157.202C174.855 157.202 175.471 157.365 176.021 157.692C176.581 158.019 177.02 158.481 177.337 159.078C177.655 159.666 177.813 160.352 177.813 161.136C177.813 161.911 177.655 162.601 177.337 163.208C177.02 163.815 176.581 164.286 176.021 164.622C175.471 164.958 174.855 165.126 174.173 165.126C173.52 165.126 172.941 164.981 172.437 164.692C171.943 164.393 171.565 164.025 171.303 163.586V168.64H170.029V157.328H171.303V158.742ZM176.511 161.136C176.511 160.557 176.395 160.053 176.161 159.624C175.928 159.195 175.611 158.868 175.209 158.644C174.817 158.42 174.383 158.308 173.907 158.308C173.441 158.308 173.007 158.425 172.605 158.658C172.213 158.882 171.896 159.213 171.653 159.652C171.42 160.081 171.303 160.581 171.303 161.15C171.303 161.729 171.42 162.237 171.653 162.676C171.896 163.105 172.213 163.437 172.605 163.67C173.007 163.894 173.441 164.006 173.907 164.006C174.383 164.006 174.817 163.894 175.209 163.67C175.611 163.437 175.928 163.105 176.161 162.676C176.395 162.237 176.511 161.724 176.511 161.136ZM180.764 158.742C181.016 158.303 181.389 157.939 181.884 157.65C182.388 157.351 182.971 157.202 183.634 157.202C184.315 157.202 184.931 157.365 185.482 157.692C186.042 158.019 186.481 158.481 186.798 159.078C187.115 159.666 187.274 160.352 187.274 161.136C187.274 161.911 187.115 162.601 186.798 163.208C186.481 163.815 186.042 164.286 185.482 164.622C184.931 164.958 184.315 165.126 183.634 165.126C182.981 165.126 182.402 164.981 181.898 164.692C181.403 164.393 181.025 164.025 180.764 163.586V168.64H179.49V157.328H180.764V158.742ZM185.972 161.136C185.972 160.557 185.855 160.053 185.622 159.624C185.389 159.195 185.071 158.868 184.67 158.644C184.278 158.42 183.844 158.308 183.368 158.308C182.901 158.308 182.467 158.425 182.066 158.658C181.674 158.882 181.357 159.213 181.114 159.652C180.881 160.081 180.764 160.581 180.764 161.15C180.764 161.729 180.881 162.237 181.114 162.676C181.357 163.105 181.674 163.437 182.066 163.67C182.467 163.894 182.901 164.006 183.368 164.006C183.844 164.006 184.278 163.894 184.67 163.67C185.071 163.437 185.389 163.105 185.622 162.676C185.855 162.237 185.972 161.724 185.972 161.136ZM192.297 165.126C191.578 165.126 190.925 164.963 190.337 164.636C189.758 164.309 189.301 163.847 188.965 163.25C188.638 162.643 188.475 161.943 188.475 161.15C188.475 160.366 188.643 159.675 188.979 159.078C189.324 158.471 189.791 158.009 190.379 157.692C190.967 157.365 191.625 157.202 192.353 157.202C193.081 157.202 193.739 157.365 194.327 157.692C194.915 158.009 195.377 158.467 195.713 159.064C196.058 159.661 196.231 160.357 196.231 161.15C196.231 161.943 196.054 162.643 195.699 163.25C195.354 163.847 194.882 164.309 194.285 164.636C193.688 164.963 193.025 165.126 192.297 165.126ZM192.297 164.006C192.754 164.006 193.184 163.899 193.585 163.684C193.986 163.469 194.308 163.147 194.551 162.718C194.803 162.289 194.929 161.766 194.929 161.15C194.929 160.534 194.808 160.011 194.565 159.582C194.322 159.153 194.005 158.835 193.613 158.63C193.221 158.415 192.796 158.308 192.339 158.308C191.872 158.308 191.443 158.415 191.051 158.63C190.668 158.835 190.36 159.153 190.127 159.582C189.894 160.011 189.777 160.534 189.777 161.15C189.777 161.775 189.889 162.303 190.113 162.732C190.346 163.161 190.654 163.483 191.037 163.698C191.42 163.903 191.84 164.006 192.297 164.006ZM199.18 158.574C199.404 158.135 199.721 157.795 200.132 157.552C200.552 157.309 201.061 157.188 201.658 157.188V158.504H201.322C199.894 158.504 199.18 159.279 199.18 160.828V165H197.906V157.328H199.18V158.574ZM204.683 158.378V162.9C204.683 163.273 204.762 163.539 204.921 163.698C205.079 163.847 205.355 163.922 205.747 163.922H206.685V165H205.537C204.827 165 204.295 164.837 203.941 164.51C203.586 164.183 203.409 163.647 203.409 162.9V158.378H202.415V157.328H203.409V155.396H204.683V157.328H206.685V158.378H204.683Z" fill="#6C7275"/>
</svg>
