<svg width="262" height="220" viewBox="0 0 262 220" fill="none" xmlns="http://www.w3.org/2000/svg">
<rect width="262" height="220" fill="#F3F5F7"/>
<path d="M64 64H48M64 64C68.4183 64 72 67.5817 72 72V84C72 88.4183 68.4183 92 64 92H48C43.5817 92 40 88.4183 40 84V72C40 67.5817 43.5817 64 48 64M64 64V60C64 55.5817 60.4183 52 56 52C51.5817 52 48 55.5817 48 60V64M56 80V76" stroke="#141718" stroke-width="2.5" stroke-linecap="round"/>
<path d="M38.08 133.14C37.1467 133.14 36.3067 132.98 35.56 132.66C34.8133 132.327 34.2267 131.86 33.8 131.26C33.3733 130.66 33.16 129.96 33.16 129.16H35.6C35.6533 129.76 35.8867 130.253 36.3 130.64C36.7267 131.027 37.32 131.22 38.08 131.22C38.8667 131.22 39.48 131.033 39.92 130.66C40.36 130.273 40.58 129.78 40.58 129.18C40.58 128.713 40.44 128.333 40.16 128.04C39.8933 127.747 39.5533 127.52 39.14 127.36C38.74 127.2 38.18 127.027 37.46 126.84C36.5533 126.6 35.8133 126.36 35.24 126.12C34.68 125.867 34.2 125.48 33.8 124.96C33.4 124.44 33.2 123.747 33.2 122.88C33.2 122.08 33.4 121.38 33.8 120.78C34.2 120.18 34.76 119.72 35.48 119.4C36.2 119.08 37.0333 118.92 37.98 118.92C39.3267 118.92 40.4267 119.26 41.28 119.94C42.1467 120.607 42.6267 121.527 42.72 122.7H40.2C40.16 122.193 39.92 121.76 39.48 121.4C39.04 121.04 38.46 120.86 37.74 120.86C37.0867 120.86 36.5533 121.027 36.14 121.36C35.7267 121.693 35.52 122.173 35.52 122.8C35.52 123.227 35.6467 123.58 35.9 123.86C36.1667 124.127 36.5 124.34 36.9 124.5C37.3 124.66 37.8467 124.833 38.54 125.02C39.46 125.273 40.2067 125.527 40.78 125.78C41.3667 126.033 41.86 126.427 42.26 126.96C42.6733 127.48 42.88 128.18 42.88 129.06C42.88 129.767 42.6867 130.433 42.3 131.06C41.9267 131.687 41.3733 132.193 40.64 132.58C39.92 132.953 39.0667 133.14 38.08 133.14ZM55.6703 127.22C55.6703 127.633 55.6436 128.007 55.5903 128.34H47.1703C47.237 129.22 47.5636 129.927 48.1503 130.46C48.737 130.993 49.457 131.26 50.3103 131.26C51.537 131.26 52.4036 130.747 52.9103 129.72H55.3703C55.037 130.733 54.4303 131.567 53.5503 132.22C52.6836 132.86 51.6036 133.18 50.3103 133.18C49.257 133.18 48.3103 132.947 47.4703 132.48C46.6436 132 45.9903 131.333 45.5103 130.48C45.0436 129.613 44.8103 128.613 44.8103 127.48C44.8103 126.347 45.037 125.353 45.4903 124.5C45.957 123.633 46.6036 122.967 47.4303 122.5C48.2703 122.033 49.2303 121.8 50.3103 121.8C51.3503 121.8 52.277 122.027 53.0903 122.48C53.9036 122.933 54.537 123.573 54.9903 124.4C55.4436 125.213 55.6703 126.153 55.6703 127.22ZM53.2903 126.5C53.277 125.66 52.977 124.987 52.3903 124.48C51.8036 123.973 51.077 123.72 50.2103 123.72C49.4236 123.72 48.7503 123.973 48.1903 124.48C47.6303 124.973 47.297 125.647 47.1903 126.5H53.2903ZM57.1541 127.48C57.1541 126.347 57.3807 125.353 57.8341 124.5C58.3007 123.633 58.9407 122.967 59.7541 122.5C60.5674 122.033 61.5007 121.8 62.5541 121.8C63.8874 121.8 64.9874 122.12 65.8541 122.76C66.7341 123.387 67.3274 124.287 67.6341 125.46H65.1741C64.9741 124.913 64.6541 124.487 64.2141 124.18C63.7741 123.873 63.2207 123.72 62.5541 123.72C61.6207 123.72 60.8741 124.053 60.3141 124.72C59.7674 125.373 59.4941 126.293 59.4941 127.48C59.4941 128.667 59.7674 129.593 60.3141 130.26C60.8741 130.927 61.6207 131.26 62.5541 131.26C63.8741 131.26 64.7474 130.68 65.1741 129.52H67.6341C67.3141 130.64 66.7141 131.533 65.8341 132.2C64.9541 132.853 63.8607 133.18 62.5541 133.18C61.5007 133.18 60.5674 132.947 59.7541 132.48C58.9407 132 58.3007 131.333 57.8341 130.48C57.3807 129.613 57.1541 128.613 57.1541 127.48ZM79.8863 121.98V133H77.6063V131.7C77.2463 132.153 76.7729 132.513 76.1863 132.78C75.6129 133.033 74.9996 133.16 74.3463 133.16C73.4796 133.16 72.6996 132.98 72.0063 132.62C71.3263 132.26 70.7863 131.727 70.3863 131.02C69.9996 130.313 69.8063 129.46 69.8063 128.46V121.98H72.0663V128.12C72.0663 129.107 72.3129 129.867 72.8063 130.4C73.2996 130.92 73.9729 131.18 74.8263 131.18C75.6796 131.18 76.3529 130.92 76.8463 130.4C77.3529 129.867 77.6063 129.107 77.6063 128.12V121.98H79.8863ZM85.1745 123.58C85.5079 123.02 85.9479 122.587 86.4945 122.28C87.0545 121.96 87.7145 121.8 88.4745 121.8V124.16H87.8945C87.0012 124.16 86.3212 124.387 85.8545 124.84C85.4012 125.293 85.1745 126.08 85.1745 127.2V133H82.8945V121.98H85.1745V123.58ZM100.67 127.22C100.67 127.633 100.644 128.007 100.59 128.34H92.1703C92.237 129.22 92.5636 129.927 93.1503 130.46C93.737 130.993 94.457 131.26 95.3103 131.26C96.537 131.26 97.4036 130.747 97.9103 129.72H100.37C100.037 130.733 99.4303 131.567 98.5503 132.22C97.6836 132.86 96.6036 133.18 95.3103 133.18C94.257 133.18 93.3103 132.947 92.4703 132.48C91.6436 132 90.9903 131.333 90.5103 130.48C90.0436 129.613 89.8103 128.613 89.8103 127.48C89.8103 126.347 90.037 125.353 90.4903 124.5C90.957 123.633 91.6036 122.967 92.4303 122.5C93.2703 122.033 94.2303 121.8 95.3103 121.8C96.3503 121.8 97.277 122.027 98.0903 122.48C98.9036 122.933 99.537 123.573 99.9903 124.4C100.444 125.213 100.67 126.153 100.67 127.22ZM98.2903 126.5C98.277 125.66 97.977 124.987 97.3903 124.48C96.8036 123.973 96.077 123.72 95.2103 123.72C94.4236 123.72 93.7503 123.973 93.1903 124.48C92.6303 124.973 92.297 125.647 92.1903 126.5H98.2903ZM117.829 123.24C117.829 123.947 117.663 124.613 117.329 125.24C116.996 125.867 116.463 126.38 115.729 126.78C114.996 127.167 114.056 127.36 112.909 127.36H110.389V133H108.109V119.1H112.909C113.976 119.1 114.876 119.287 115.609 119.66C116.356 120.02 116.909 120.513 117.269 121.14C117.643 121.767 117.829 122.467 117.829 123.24ZM112.909 125.5C113.776 125.5 114.423 125.307 114.849 124.92C115.276 124.52 115.489 123.96 115.489 123.24C115.489 121.72 114.629 120.96 112.909 120.96H110.389V125.5H112.909ZM119.244 127.44C119.244 126.333 119.471 125.353 119.924 124.5C120.391 123.647 121.017 122.987 121.804 122.52C122.604 122.04 123.484 121.8 124.444 121.8C125.311 121.8 126.064 121.973 126.704 122.32C127.357 122.653 127.877 123.073 128.264 123.58V121.98H130.564V133H128.264V131.36C127.877 131.88 127.351 132.313 126.684 132.66C126.017 133.007 125.257 133.18 124.404 133.18C123.457 133.18 122.591 132.94 121.804 132.46C121.017 131.967 120.391 131.287 119.924 130.42C119.471 129.54 119.244 128.547 119.244 127.44ZM128.264 127.48C128.264 126.72 128.104 126.06 127.784 125.5C127.477 124.94 127.071 124.513 126.564 124.22C126.057 123.927 125.511 123.78 124.924 123.78C124.337 123.78 123.791 123.927 123.284 124.22C122.777 124.5 122.364 124.92 122.044 125.48C121.737 126.027 121.584 126.68 121.584 127.44C121.584 128.2 121.737 128.867 122.044 129.44C122.364 130.013 122.777 130.453 123.284 130.76C123.804 131.053 124.351 131.2 124.924 131.2C125.511 131.2 126.057 131.053 126.564 130.76C127.071 130.467 127.477 130.04 127.784 129.48C128.104 128.907 128.264 128.24 128.264 127.48ZM143.479 121.98L136.719 138.18H134.359L136.599 132.82L132.259 121.98H134.799L137.899 130.38L141.119 121.98H143.479ZM158.539 121.8C159.406 121.8 160.179 121.98 160.859 122.34C161.553 122.7 162.093 123.233 162.479 123.94C162.879 124.647 163.079 125.5 163.079 126.5V133H160.819V126.84C160.819 125.853 160.573 125.1 160.079 124.58C159.586 124.047 158.913 123.78 158.059 123.78C157.206 123.78 156.526 124.047 156.019 124.58C155.526 125.1 155.279 125.853 155.279 126.84V133H153.019V126.84C153.019 125.853 152.773 125.1 152.279 124.58C151.786 124.047 151.113 123.78 150.259 123.78C149.406 123.78 148.726 124.047 148.219 124.58C147.726 125.1 147.479 125.853 147.479 126.84V133H145.199V121.98H147.479V123.24C147.853 122.787 148.326 122.433 148.899 122.18C149.473 121.927 150.086 121.8 150.739 121.8C151.619 121.8 152.406 121.987 153.099 122.36C153.793 122.733 154.326 123.273 154.699 123.98C155.033 123.313 155.553 122.787 156.259 122.4C156.966 122 157.726 121.8 158.539 121.8ZM176.08 127.22C176.08 127.633 176.054 128.007 176 128.34H167.58C167.647 129.22 167.974 129.927 168.56 130.46C169.147 130.993 169.867 131.26 170.72 131.26C171.947 131.26 172.814 130.747 173.32 129.72H175.78C175.447 130.733 174.84 131.567 173.96 132.22C173.094 132.86 172.014 133.18 170.72 133.18C169.667 133.18 168.72 132.947 167.88 132.48C167.054 132 166.4 131.333 165.92 130.48C165.454 129.613 165.22 128.613 165.22 127.48C165.22 126.347 165.447 125.353 165.9 124.5C166.367 123.633 167.014 122.967 167.84 122.5C168.68 122.033 169.64 121.8 170.72 121.8C171.76 121.8 172.687 122.027 173.5 122.48C174.314 122.933 174.947 123.573 175.4 124.4C175.854 125.213 176.08 126.153 176.08 127.22ZM173.7 126.5C173.687 125.66 173.387 124.987 172.8 124.48C172.214 123.973 171.487 123.72 170.62 123.72C169.834 123.72 169.16 123.973 168.6 124.48C168.04 124.973 167.707 125.647 167.6 126.5H173.7ZM183.884 121.8C184.751 121.8 185.524 121.98 186.204 122.34C186.898 122.7 187.438 123.233 187.824 123.94C188.211 124.647 188.404 125.5 188.404 126.5V133H186.144V126.84C186.144 125.853 185.898 125.1 185.404 124.58C184.911 124.047 184.238 123.78 183.384 123.78C182.531 123.78 181.851 124.047 181.344 124.58C180.851 125.1 180.604 125.853 180.604 126.84V133H178.324V121.98H180.604V123.24C180.978 122.787 181.451 122.433 182.024 122.18C182.611 121.927 183.231 121.8 183.884 121.8ZM193.973 123.84V129.94C193.973 130.353 194.066 130.653 194.253 130.84C194.453 131.013 194.786 131.1 195.253 131.1H196.653V133H194.853C193.826 133 193.039 132.76 192.493 132.28C191.946 131.8 191.673 131.02 191.673 129.94V123.84H190.373V121.98H191.673V119.24H193.973V121.98H196.653V123.84H193.973ZM202.754 133.18C201.887 133.18 201.107 133.027 200.414 132.72C199.734 132.4 199.194 131.973 198.794 131.44C198.394 130.893 198.181 130.287 198.154 129.62H200.514C200.554 130.087 200.774 130.48 201.174 130.8C201.587 131.107 202.101 131.26 202.714 131.26C203.354 131.26 203.847 131.14 204.194 130.9C204.554 130.647 204.734 130.327 204.734 129.94C204.734 129.527 204.534 129.22 204.134 129.02C203.747 128.82 203.127 128.6 202.274 128.36C201.447 128.133 200.774 127.913 200.254 127.7C199.734 127.487 199.281 127.16 198.894 126.72C198.521 126.28 198.334 125.7 198.334 124.98C198.334 124.393 198.507 123.86 198.854 123.38C199.201 122.887 199.694 122.5 200.334 122.22C200.987 121.94 201.734 121.8 202.574 121.8C203.827 121.8 204.834 122.12 205.594 122.76C206.367 123.387 206.781 124.247 206.834 125.34H204.554C204.514 124.847 204.314 124.453 203.954 124.16C203.594 123.867 203.107 123.72 202.494 123.72C201.894 123.72 201.434 123.833 201.114 124.06C200.794 124.287 200.634 124.587 200.634 124.96C200.634 125.253 200.741 125.5 200.954 125.7C201.167 125.9 201.427 126.06 201.734 126.18C202.041 126.287 202.494 126.427 203.094 126.6C203.894 126.813 204.547 127.033 205.054 127.26C205.574 127.473 206.021 127.793 206.394 128.22C206.767 128.647 206.961 129.213 206.974 129.92C206.974 130.547 206.801 131.107 206.454 131.6C206.107 132.093 205.614 132.48 204.974 132.76C204.347 133.04 203.607 133.18 202.754 133.18Z" fill="#141718"/>
<path d="M36.172 165.098C35.528 165.098 34.9493 164.986 34.436 164.762C33.932 164.529 33.5353 164.211 33.246 163.81C32.9567 163.399 32.8073 162.928 32.798 162.396H34.156C34.2027 162.853 34.3893 163.241 34.716 163.558C35.052 163.866 35.5373 164.02 36.172 164.02C36.7787 164.02 37.2547 163.871 37.6 163.572C37.9547 163.264 38.132 162.872 38.132 162.396C38.132 162.023 38.0293 161.719 37.824 161.486C37.6187 161.253 37.362 161.075 37.054 160.954C36.746 160.833 36.3307 160.702 35.808 160.562C35.164 160.394 34.646 160.226 34.254 160.058C33.8713 159.89 33.54 159.629 33.26 159.274C32.9893 158.91 32.854 158.425 32.854 157.818C32.854 157.286 32.9893 156.815 33.26 156.404C33.5307 155.993 33.9087 155.676 34.394 155.452C34.8887 155.228 35.4533 155.116 36.088 155.116C37.0027 155.116 37.7493 155.345 38.328 155.802C38.916 156.259 39.2473 156.866 39.322 157.622H37.922C37.8753 157.249 37.6793 156.922 37.334 156.642C36.9887 156.353 36.5313 156.208 35.962 156.208C35.43 156.208 34.996 156.348 34.66 156.628C34.324 156.899 34.156 157.281 34.156 157.776C34.156 158.131 34.254 158.42 34.45 158.644C34.6553 158.868 34.9027 159.041 35.192 159.162C35.4907 159.274 35.906 159.405 36.438 159.554C37.082 159.731 37.6 159.909 37.992 160.086C38.384 160.254 38.72 160.52 39 160.884C39.28 161.239 39.42 161.724 39.42 162.34C39.42 162.816 39.294 163.264 39.042 163.684C38.79 164.104 38.4167 164.445 37.922 164.706C37.4273 164.967 36.844 165.098 36.172 165.098ZM48.2948 160.87C48.2948 161.113 48.2808 161.369 48.2528 161.64H42.1208C42.1675 162.396 42.4241 162.989 42.8908 163.418C43.3668 163.838 43.9408 164.048 44.6128 164.048C45.1635 164.048 45.6208 163.922 45.9848 163.67C46.3581 163.409 46.6195 163.063 46.7688 162.634H48.1408C47.9355 163.371 47.5248 163.973 46.9088 164.44C46.2928 164.897 45.5275 165.126 44.6128 165.126C43.8848 165.126 43.2315 164.963 42.6528 164.636C42.0835 164.309 41.6355 163.847 41.3088 163.25C40.9821 162.643 40.8188 161.943 40.8188 161.15C40.8188 160.357 40.9775 159.661 41.2948 159.064C41.6121 158.467 42.0555 158.009 42.6248 157.692C43.2035 157.365 43.8661 157.202 44.6128 157.202C45.3408 157.202 45.9848 157.361 46.5448 157.678C47.1048 157.995 47.5341 158.434 47.8328 158.994C48.1408 159.545 48.2948 160.17 48.2948 160.87ZM46.9788 160.604C46.9788 160.119 46.8715 159.703 46.6568 159.358C46.4421 159.003 46.1481 158.737 45.7748 158.56C45.4108 158.373 45.0048 158.28 44.5568 158.28C43.9128 158.28 43.3621 158.485 42.9048 158.896C42.4568 159.307 42.2001 159.876 42.1348 160.604H46.9788ZM49.5004 161.15C49.5004 160.357 49.6591 159.666 49.9764 159.078C50.2938 158.481 50.7324 158.019 51.2924 157.692C51.8618 157.365 52.5104 157.202 53.2384 157.202C54.1811 157.202 54.9558 157.431 55.5624 157.888C56.1784 158.345 56.5844 158.98 56.7804 159.792H55.4084C55.2778 159.325 55.0211 158.957 54.6384 158.686C54.2651 158.415 53.7984 158.28 53.2384 158.28C52.5104 158.28 51.9224 158.532 51.4744 159.036C51.0264 159.531 50.8024 160.235 50.8024 161.15C50.8024 162.074 51.0264 162.788 51.4744 163.292C51.9224 163.796 52.5104 164.048 53.2384 164.048C53.7984 164.048 54.2651 163.917 54.6384 163.656C55.0118 163.395 55.2684 163.021 55.4084 162.536H56.7804C56.5751 163.32 56.1644 163.95 55.5484 164.426C54.9324 164.893 54.1624 165.126 53.2384 165.126C52.5104 165.126 51.8618 164.963 51.2924 164.636C50.7324 164.309 50.2938 163.847 49.9764 163.25C49.6591 162.653 49.5004 161.953 49.5004 161.15ZM65.2843 157.328V165H64.0103V163.866C63.7677 164.258 63.427 164.566 62.9883 164.79C62.559 165.005 62.083 165.112 61.5603 165.112C60.963 165.112 60.4263 164.991 59.9503 164.748C59.4743 164.496 59.0963 164.123 58.8163 163.628C58.5457 163.133 58.4103 162.531 58.4103 161.822V157.328H59.6703V161.654C59.6703 162.41 59.8617 162.993 60.2443 163.404C60.627 163.805 61.1497 164.006 61.8123 164.006C62.4937 164.006 63.0303 163.796 63.4223 163.376C63.8143 162.956 64.0103 162.345 64.0103 161.542V157.328H65.2843ZM68.7094 158.574C68.9334 158.135 69.2508 157.795 69.6614 157.552C70.0814 157.309 70.5901 157.188 71.1874 157.188V158.504H70.8514C69.4234 158.504 68.7094 159.279 68.7094 160.828V165H67.4354V157.328H68.7094V158.574ZM79.6581 160.87C79.6581 161.113 79.6441 161.369 79.6161 161.64H73.4841C73.5307 162.396 73.7874 162.989 74.2541 163.418C74.7301 163.838 75.3041 164.048 75.9761 164.048C76.5267 164.048 76.9841 163.922 77.3481 163.67C77.7214 163.409 77.9827 163.063 78.1321 162.634H79.5041C79.2987 163.371 78.8881 163.973 78.2721 164.44C77.6561 164.897 76.8907 165.126 75.9761 165.126C75.2481 165.126 74.5947 164.963 74.0161 164.636C73.4467 164.309 72.9987 163.847 72.6721 163.25C72.3454 162.643 72.1821 161.943 72.1821 161.15C72.1821 160.357 72.3407 159.661 72.6581 159.064C72.9754 158.467 73.4187 158.009 73.9881 157.692C74.5667 157.365 75.2294 157.202 75.9761 157.202C76.7041 157.202 77.3481 157.361 77.9081 157.678C78.4681 157.995 78.8974 158.434 79.1961 158.994C79.5041 159.545 79.6581 160.17 79.6581 160.87ZM78.3421 160.604C78.3421 160.119 78.2347 159.703 78.0201 159.358C77.8054 159.003 77.5114 158.737 77.1381 158.56C76.7741 158.373 76.3681 158.28 75.9201 158.28C75.2761 158.28 74.7254 158.485 74.2681 158.896C73.8201 159.307 73.5634 159.876 73.4981 160.604H78.3421ZM80.8637 161.136C80.8637 160.352 81.0224 159.666 81.3397 159.078C81.6571 158.481 82.0911 158.019 82.6417 157.692C83.2017 157.365 83.8271 157.202 84.5177 157.202C85.1151 157.202 85.6704 157.342 86.1837 157.622C86.6971 157.893 87.0891 158.252 87.3597 158.7V154.64H88.6477V165H87.3597V163.558C87.1077 164.015 86.7344 164.393 86.2397 164.692C85.7451 164.981 85.1664 165.126 84.5037 165.126C83.8224 165.126 83.2017 164.958 82.6417 164.622C82.0911 164.286 81.6571 163.815 81.3397 163.208C81.0224 162.601 80.8637 161.911 80.8637 161.136ZM87.3597 161.15C87.3597 160.571 87.2431 160.067 87.0097 159.638C86.7764 159.209 86.4591 158.882 86.0577 158.658C85.6657 158.425 85.2317 158.308 84.7557 158.308C84.2797 158.308 83.8457 158.42 83.4537 158.644C83.0617 158.868 82.7491 159.195 82.5157 159.624C82.2824 160.053 82.1657 160.557 82.1657 161.136C82.1657 161.724 82.2824 162.237 82.5157 162.676C82.7491 163.105 83.0617 163.437 83.4537 163.67C83.8457 163.894 84.2797 164.006 84.7557 164.006C85.2317 164.006 85.6657 163.894 86.0577 163.67C86.4591 163.437 86.7764 163.105 87.0097 162.676C87.2431 162.237 87.3597 161.729 87.3597 161.15ZM95.8071 158.756C96.0684 158.299 96.4511 157.925 96.9551 157.636C97.4591 157.347 98.0331 157.202 98.6771 157.202C99.3677 157.202 99.9884 157.365 100.539 157.692C101.09 158.019 101.524 158.481 101.841 159.078C102.158 159.666 102.317 160.352 102.317 161.136C102.317 161.911 102.158 162.601 101.841 163.208C101.524 163.815 101.085 164.286 100.525 164.622C99.9744 164.958 99.3584 165.126 98.6771 165.126C98.0144 165.126 97.4311 164.981 96.9271 164.692C96.4324 164.403 96.0591 164.034 95.8071 163.586V165H94.5331V154.64H95.8071V158.756ZM101.015 161.136C101.015 160.557 100.898 160.053 100.665 159.624C100.432 159.195 100.114 158.868 99.7131 158.644C99.3211 158.42 98.8871 158.308 98.4111 158.308C97.9444 158.308 97.5104 158.425 97.1091 158.658C96.7171 158.882 96.3997 159.213 96.1571 159.652C95.9237 160.081 95.8071 160.581 95.8071 161.15C95.8071 161.729 95.9237 162.237 96.1571 162.676C96.3997 163.105 96.7171 163.437 97.1091 163.67C97.5104 163.894 97.9444 164.006 98.4111 164.006C98.8871 164.006 99.3211 163.894 99.7131 163.67C100.114 163.437 100.432 163.105 100.665 162.676C100.898 162.237 101.015 161.724 101.015 161.136ZM110.602 157.328L105.982 168.612H104.666L106.178 164.916L103.084 157.328H104.498L106.906 163.544L109.286 157.328H110.602ZM118.709 165.098C118.065 165.098 117.486 164.986 116.973 164.762C116.469 164.529 116.072 164.211 115.783 163.81C115.494 163.399 115.344 162.928 115.335 162.396H116.693C116.74 162.853 116.926 163.241 117.253 163.558C117.589 163.866 118.074 164.02 118.709 164.02C119.316 164.02 119.792 163.871 120.137 163.572C120.492 163.264 120.669 162.872 120.669 162.396C120.669 162.023 120.566 161.719 120.361 161.486C120.156 161.253 119.899 161.075 119.591 160.954C119.283 160.833 118.868 160.702 118.345 160.562C117.701 160.394 117.183 160.226 116.791 160.058C116.408 159.89 116.077 159.629 115.797 159.274C115.526 158.91 115.391 158.425 115.391 157.818C115.391 157.286 115.526 156.815 115.797 156.404C116.068 155.993 116.446 155.676 116.931 155.452C117.426 155.228 117.99 155.116 118.625 155.116C119.54 155.116 120.286 155.345 120.865 155.802C121.453 156.259 121.784 156.866 121.859 157.622H120.459C120.412 157.249 120.216 156.922 119.871 156.642C119.526 156.353 119.068 156.208 118.499 156.208C117.967 156.208 117.533 156.348 117.197 156.628C116.861 156.899 116.693 157.281 116.693 157.776C116.693 158.131 116.791 158.42 116.987 158.644C117.192 158.868 117.44 159.041 117.729 159.162C118.028 159.274 118.443 159.405 118.975 159.554C119.619 159.731 120.137 159.909 120.529 160.086C120.921 160.254 121.257 160.52 121.537 160.884C121.817 161.239 121.957 161.724 121.957 162.34C121.957 162.816 121.831 163.264 121.579 163.684C121.327 164.104 120.954 164.445 120.459 164.706C119.964 164.967 119.381 165.098 118.709 165.098ZM125.386 158.378V162.9C125.386 163.273 125.465 163.539 125.624 163.698C125.783 163.847 126.058 163.922 126.45 163.922H127.388V165H126.24C125.531 165 124.999 164.837 124.644 164.51C124.289 164.183 124.112 163.647 124.112 162.9V158.378H123.118V157.328H124.112V155.396H125.386V157.328H127.388V158.378H125.386ZM130.206 158.574C130.43 158.135 130.747 157.795 131.158 157.552C131.578 157.309 132.086 157.188 132.684 157.188V158.504H132.348C130.92 158.504 130.206 159.279 130.206 160.828V165H128.932V157.328H130.206V158.574ZM134.812 156.082C134.57 156.082 134.364 155.998 134.196 155.83C134.028 155.662 133.944 155.457 133.944 155.214C133.944 154.971 134.028 154.766 134.196 154.598C134.364 154.43 134.57 154.346 134.812 154.346C135.046 154.346 135.242 154.43 135.4 154.598C135.568 154.766 135.652 154.971 135.652 155.214C135.652 155.457 135.568 155.662 135.4 155.83C135.242 155.998 135.046 156.082 134.812 156.082ZM135.428 157.328V165H134.154V157.328H135.428ZM138.873 158.742C139.125 158.303 139.499 157.939 139.993 157.65C140.497 157.351 141.081 157.202 141.743 157.202C142.425 157.202 143.041 157.365 143.591 157.692C144.151 158.019 144.59 158.481 144.907 159.078C145.225 159.666 145.383 160.352 145.383 161.136C145.383 161.911 145.225 162.601 144.907 163.208C144.59 163.815 144.151 164.286 143.591 164.622C143.041 164.958 142.425 165.126 141.743 165.126C141.09 165.126 140.511 164.981 140.007 164.692C139.513 164.393 139.135 164.025 138.873 163.586V168.64H137.599V157.328H138.873V158.742ZM144.081 161.136C144.081 160.557 143.965 160.053 143.731 159.624C143.498 159.195 143.181 158.868 142.779 158.644C142.387 158.42 141.953 158.308 141.477 158.308C141.011 158.308 140.577 158.425 140.175 158.658C139.783 158.882 139.466 159.213 139.223 159.652C138.99 160.081 138.873 160.581 138.873 161.15C138.873 161.729 138.99 162.237 139.223 162.676C139.466 163.105 139.783 163.437 140.175 163.67C140.577 163.894 141.011 164.006 141.477 164.006C141.953 164.006 142.387 163.894 142.779 163.67C143.181 163.437 143.498 163.105 143.731 162.676C143.965 162.237 144.081 161.724 144.081 161.136ZM154.06 160.87C154.06 161.113 154.046 161.369 154.018 161.64H147.886C147.933 162.396 148.19 162.989 148.656 163.418C149.132 163.838 149.706 164.048 150.378 164.048C150.929 164.048 151.386 163.922 151.75 163.67C152.124 163.409 152.385 163.063 152.534 162.634H153.906C153.701 163.371 153.29 163.973 152.674 164.44C152.058 164.897 151.293 165.126 150.378 165.126C149.65 165.126 148.997 164.963 148.418 164.636C147.849 164.309 147.401 163.847 147.074 163.25C146.748 162.643 146.584 161.943 146.584 161.15C146.584 160.357 146.743 159.661 147.06 159.064C147.378 158.467 147.821 158.009 148.39 157.692C148.969 157.365 149.632 157.202 150.378 157.202C151.106 157.202 151.75 157.361 152.31 157.678C152.87 157.995 153.3 158.434 153.598 158.994C153.906 159.545 154.06 160.17 154.06 160.87ZM152.744 160.604C152.744 160.119 152.637 159.703 152.422 159.358C152.208 159.003 151.914 158.737 151.54 158.56C151.176 158.373 150.77 158.28 150.322 158.28C149.678 158.28 149.128 158.485 148.67 158.896C148.222 159.307 147.966 159.876 147.9 160.604H152.744Z" fill="#6C7275"/>
</svg>
