<svg width="262" height="220" viewBox="0 0 262 220" fill="none" xmlns="http://www.w3.org/2000/svg">
<rect width="262" height="220" fill="#F3F5F7"/>
<path d="M60 86V62M60 86H64M60 86H50M60 62C60 57.5817 56.4183 54 52 54H44C39.5817 54 36 57.5817 36 62V78C36 81.7304 38.5533 84.8645 42.0077 85.7499M60 62H66.4182C67.4344 62 68.4126 62.3868 69.154 63.0819L74.7358 68.3148C75.5424 69.071 76 70.1273 76 71.2329V82C76 84.2091 74.2091 86 72 86M72 86C72 88.2091 70.2091 90 68 90C65.7909 90 64 88.2091 64 86M72 86C72 83.7909 70.2091 82 68 82C65.7909 82 64 83.7909 64 86M50 86C50 88.2091 48.2091 90 46 90C43.7909 90 42 88.2091 42 86C42 85.916 42.0026 85.8326 42.0077 85.7499M50 86C50 83.7909 48.2091 82 46 82C43.8748 82 42.1368 83.6573 42.0077 85.7499" stroke="#141718" stroke-width="2.5"/>
<path d="M52 64H48" stroke="#141718" stroke-width="2.5" stroke-linecap="round" stroke-linejoin="round"/>
<path d="M52 72H44" stroke="#141718" stroke-width="2.5" stroke-linecap="round" stroke-linejoin="round"/>
<path d="M41.68 119.1V120.96H35.78V125.06H40.38V126.92H35.78V133H33.5V119.1H41.68ZM46.073 123.58C46.4063 123.02 46.8463 122.587 47.393 122.28C47.953 121.96 48.613 121.8 49.373 121.8V124.16H48.793C47.8996 124.16 47.2196 124.387 46.753 124.84C46.2996 125.293 46.073 126.08 46.073 127.2V133H43.793V121.98H46.073V123.58ZM61.5688 127.22C61.5688 127.633 61.5421 128.007 61.4888 128.34H53.0688C53.1354 129.22 53.4621 129.927 54.0488 130.46C54.6354 130.993 55.3554 131.26 56.2088 131.26C57.4354 131.26 58.3021 130.747 58.8088 129.72H61.2687C60.9354 130.733 60.3288 131.567 59.4488 132.22C58.5821 132.86 57.5021 133.18 56.2088 133.18C55.1554 133.18 54.2088 132.947 53.3688 132.48C52.5421 132 51.8888 131.333 51.4088 130.48C50.9421 129.613 50.7088 128.613 50.7088 127.48C50.7088 126.347 50.9354 125.353 51.3888 124.5C51.8554 123.633 52.5021 122.967 53.3288 122.5C54.1688 122.033 55.1288 121.8 56.2088 121.8C57.2488 121.8 58.1754 122.027 58.9888 122.48C59.8021 122.933 60.4354 123.573 60.8888 124.4C61.3421 125.213 61.5688 126.153 61.5688 127.22ZM59.1888 126.5C59.1754 125.66 58.8754 124.987 58.2888 124.48C57.7021 123.973 56.9754 123.72 56.1088 123.72C55.3221 123.72 54.6488 123.973 54.0888 124.48C53.5288 124.973 53.1954 125.647 53.0888 126.5H59.1888ZM73.9125 127.22C73.9125 127.633 73.8858 128.007 73.8325 128.34H65.4125C65.4792 129.22 65.8058 129.927 66.3925 130.46C66.9792 130.993 67.6992 131.26 68.5525 131.26C69.7792 131.26 70.6458 130.747 71.1525 129.72H73.6125C73.2792 130.733 72.6725 131.567 71.7925 132.22C70.9258 132.86 69.8458 133.18 68.5525 133.18C67.4992 133.18 66.5525 132.947 65.7125 132.48C64.8858 132 64.2325 131.333 63.7525 130.48C63.2858 129.613 63.0525 128.613 63.0525 127.48C63.0525 126.347 63.2792 125.353 63.7325 124.5C64.1992 123.633 64.8458 122.967 65.6725 122.5C66.5125 122.033 67.4725 121.8 68.5525 121.8C69.5925 121.8 70.5192 122.027 71.3325 122.48C72.1458 122.933 72.7792 123.573 73.2325 124.4C73.6858 125.213 73.9125 126.153 73.9125 127.22ZM71.5325 126.5C71.5192 125.66 71.2192 124.987 70.6325 124.48C70.0458 123.973 69.3192 123.72 68.4525 123.72C67.6658 123.72 66.9925 123.973 66.4325 124.48C65.8725 124.973 65.5392 125.647 65.4325 126.5H71.5325ZM85.9316 133.14C84.9982 133.14 84.1582 132.98 83.4116 132.66C82.6649 132.327 82.0782 131.86 81.6516 131.26C81.2249 130.66 81.0116 129.96 81.0116 129.16H83.4516C83.5049 129.76 83.7382 130.253 84.1516 130.64C84.5782 131.027 85.1716 131.22 85.9316 131.22C86.7182 131.22 87.3316 131.033 87.7716 130.66C88.2116 130.273 88.4316 129.78 88.4316 129.18C88.4316 128.713 88.2916 128.333 88.0116 128.04C87.7449 127.747 87.4049 127.52 86.9916 127.36C86.5916 127.2 86.0316 127.027 85.3116 126.84C84.4049 126.6 83.6649 126.36 83.0916 126.12C82.5316 125.867 82.0516 125.48 81.6516 124.96C81.2516 124.44 81.0516 123.747 81.0516 122.88C81.0516 122.08 81.2516 121.38 81.6516 120.78C82.0516 120.18 82.6116 119.72 83.3316 119.4C84.0516 119.08 84.8849 118.92 85.8316 118.92C87.1782 118.92 88.2782 119.26 89.1316 119.94C89.9982 120.607 90.4782 121.527 90.5716 122.7H88.0516C88.0116 122.193 87.7716 121.76 87.3316 121.4C86.8916 121.04 86.3116 120.86 85.5916 120.86C84.9382 120.86 84.4049 121.027 83.9916 121.36C83.5782 121.693 83.3716 122.173 83.3716 122.8C83.3716 123.227 83.4982 123.58 83.7516 123.86C84.0182 124.127 84.3516 124.34 84.7516 124.5C85.1516 124.66 85.6982 124.833 86.3916 125.02C87.3116 125.273 88.0582 125.527 88.6316 125.78C89.2182 126.033 89.7116 126.427 90.1116 126.96C90.5249 127.48 90.7316 128.18 90.7316 129.06C90.7316 129.767 90.5382 130.433 90.1516 131.06C89.7782 131.687 89.2249 132.193 88.4916 132.58C87.7716 132.953 86.9182 133.14 85.9316 133.14ZM99.1219 121.8C99.9619 121.8 100.709 121.98 101.362 122.34C102.029 122.7 102.549 123.233 102.922 123.94C103.309 124.647 103.502 125.5 103.502 126.5V133H101.242V126.84C101.242 125.853 100.995 125.1 100.502 124.58C100.009 124.047 99.3352 123.78 98.4819 123.78C97.6285 123.78 96.9485 124.047 96.4419 124.58C95.9485 125.1 95.7019 125.853 95.7019 126.84V133H93.4219V118.2H95.7019V123.26C96.0885 122.793 96.5752 122.433 97.1619 122.18C97.7619 121.927 98.4152 121.8 99.1219 121.8ZM107.57 120.52C107.157 120.52 106.81 120.38 106.53 120.1C106.25 119.82 106.11 119.473 106.11 119.06C106.11 118.647 106.25 118.3 106.53 118.02C106.81 117.74 107.157 117.6 107.57 117.6C107.97 117.6 108.31 117.74 108.59 118.02C108.87 118.3 109.01 118.647 109.01 119.06C109.01 119.473 108.87 119.82 108.59 120.1C108.31 120.38 107.97 120.52 107.57 120.52ZM108.69 121.98V133H106.41V121.98H108.69ZM113.964 123.6C114.35 123.093 114.877 122.667 115.544 122.32C116.21 121.973 116.964 121.8 117.804 121.8C118.764 121.8 119.637 122.04 120.424 122.52C121.224 122.987 121.85 123.647 122.304 124.5C122.757 125.353 122.984 126.333 122.984 127.44C122.984 128.547 122.757 129.54 122.304 130.42C121.85 131.287 121.224 131.967 120.424 132.46C119.637 132.94 118.764 133.18 117.804 133.18C116.964 133.18 116.217 133.013 115.564 132.68C114.91 132.333 114.377 131.907 113.964 131.4V138.24H111.684V121.98H113.964V123.6ZM120.664 127.44C120.664 126.68 120.504 126.027 120.184 125.48C119.877 124.92 119.464 124.5 118.944 124.22C118.437 123.927 117.89 123.78 117.304 123.78C116.73 123.78 116.184 123.927 115.664 124.22C115.157 124.513 114.744 124.94 114.424 125.5C114.117 126.06 113.964 126.72 113.964 127.48C113.964 128.24 114.117 128.907 114.424 129.48C114.744 130.04 115.157 130.467 115.664 130.76C116.184 131.053 116.73 131.2 117.304 131.2C117.89 131.2 118.437 131.053 118.944 130.76C119.464 130.453 119.877 130.013 120.184 129.44C120.504 128.867 120.664 128.2 120.664 127.44ZM127.518 123.6C127.905 123.093 128.432 122.667 129.098 122.32C129.765 121.973 130.518 121.8 131.358 121.8C132.318 121.8 133.192 122.04 133.978 122.52C134.778 122.987 135.405 123.647 135.858 124.5C136.312 125.353 136.538 126.333 136.538 127.44C136.538 128.547 136.312 129.54 135.858 130.42C135.405 131.287 134.778 131.967 133.978 132.46C133.192 132.94 132.318 133.18 131.358 133.18C130.518 133.18 129.772 133.013 129.118 132.68C128.465 132.333 127.932 131.907 127.518 131.4V138.24H125.238V121.98H127.518V123.6ZM134.218 127.44C134.218 126.68 134.058 126.027 133.738 125.48C133.432 124.92 133.018 124.5 132.498 124.22C131.992 123.927 131.445 123.78 130.858 123.78C130.285 123.78 129.738 123.927 129.218 124.22C128.712 124.513 128.298 124.94 127.978 125.5C127.672 126.06 127.518 126.72 127.518 127.48C127.518 128.24 127.672 128.907 127.978 129.48C128.298 130.04 128.712 130.467 129.218 130.76C129.738 131.053 130.285 131.2 130.858 131.2C131.445 131.2 131.992 131.053 132.498 130.76C133.018 130.453 133.432 130.013 133.738 129.44C134.058 128.867 134.218 128.2 134.218 127.44ZM139.953 120.52C139.54 120.52 139.193 120.38 138.913 120.1C138.633 119.82 138.493 119.473 138.493 119.06C138.493 118.647 138.633 118.3 138.913 118.02C139.193 117.74 139.54 117.6 139.953 117.6C140.353 117.6 140.693 117.74 140.973 118.02C141.253 118.3 141.393 118.647 141.393 119.06C141.393 119.473 141.253 119.82 140.973 120.1C140.693 120.38 140.353 120.52 139.953 120.52ZM141.073 121.98V133H138.793V121.98H141.073ZM149.626 121.8C150.493 121.8 151.266 121.98 151.946 122.34C152.64 122.7 153.18 123.233 153.566 123.94C153.953 124.647 154.146 125.5 154.146 126.5V133H151.886V126.84C151.886 125.853 151.64 125.1 151.146 124.58C150.653 124.047 149.98 123.78 149.126 123.78C148.273 123.78 147.593 124.047 147.086 124.58C146.593 125.1 146.346 125.853 146.346 126.84V133H144.066V121.98H146.346V123.24C146.72 122.787 147.193 122.433 147.766 122.18C148.353 121.927 148.973 121.8 149.626 121.8ZM161.495 121.8C162.348 121.8 163.101 121.973 163.755 122.32C164.421 122.653 164.941 123.073 165.315 123.58V121.98H167.615V133.18C167.615 134.193 167.401 135.093 166.975 135.88C166.548 136.68 165.928 137.307 165.115 137.76C164.315 138.213 163.355 138.44 162.235 138.44C160.741 138.44 159.501 138.087 158.515 137.38C157.528 136.687 156.968 135.74 156.835 134.54H159.095C159.268 135.113 159.635 135.573 160.195 135.92C160.768 136.28 161.448 136.46 162.235 136.46C163.155 136.46 163.895 136.18 164.455 135.62C165.028 135.06 165.315 134.247 165.315 133.18V131.34C164.928 131.86 164.401 132.3 163.735 132.66C163.081 133.007 162.335 133.18 161.495 133.18C160.535 133.18 159.655 132.94 158.855 132.46C158.068 131.967 157.441 131.287 156.975 130.42C156.521 129.54 156.295 128.547 156.295 127.44C156.295 126.333 156.521 125.353 156.975 124.5C157.441 123.647 158.068 122.987 158.855 122.52C159.655 122.04 160.535 121.8 161.495 121.8ZM165.315 127.48C165.315 126.72 165.155 126.06 164.835 125.5C164.528 124.94 164.121 124.513 163.615 124.22C163.108 123.927 162.561 123.78 161.975 123.78C161.388 123.78 160.841 123.927 160.335 124.22C159.828 124.5 159.415 124.92 159.095 125.48C158.788 126.027 158.635 126.68 158.635 127.44C158.635 128.2 158.788 128.867 159.095 129.44C159.415 130.013 159.828 130.453 160.335 130.76C160.855 131.053 161.401 131.2 161.975 131.2C162.561 131.2 163.108 131.053 163.615 130.76C164.121 130.467 164.528 130.04 164.835 129.48C165.155 128.907 165.315 128.24 165.315 127.48Z" fill="#141718"/>
<path d="M37.502 165.098C36.5967 165.098 35.7707 164.888 35.024 164.468C34.2773 164.039 33.6847 163.446 33.246 162.69C32.8167 161.925 32.602 161.066 32.602 160.114C32.602 159.162 32.8167 158.308 33.246 157.552C33.6847 156.787 34.2773 156.194 35.024 155.774C35.7707 155.345 36.5967 155.13 37.502 155.13C38.4167 155.13 39.2473 155.345 39.994 155.774C40.7407 156.194 41.3287 156.782 41.758 157.538C42.1873 158.294 42.402 159.153 42.402 160.114C42.402 161.075 42.1873 161.934 41.758 162.69C41.3287 163.446 40.7407 164.039 39.994 164.468C39.2473 164.888 38.4167 165.098 37.502 165.098ZM37.502 163.992C38.1833 163.992 38.7947 163.833 39.336 163.516C39.8867 163.199 40.316 162.746 40.624 162.158C40.9413 161.57 41.1 160.889 41.1 160.114C41.1 159.33 40.9413 158.649 40.624 158.07C40.316 157.482 39.8913 157.029 39.35 156.712C38.8087 156.395 38.1927 156.236 37.502 156.236C36.8113 156.236 36.1953 156.395 35.654 156.712C35.1127 157.029 34.6833 157.482 34.366 158.07C34.058 158.649 33.904 159.33 33.904 160.114C33.904 160.889 34.058 161.57 34.366 162.158C34.6833 162.746 35.1127 163.199 35.654 163.516C36.2047 163.833 36.8207 163.992 37.502 163.992ZM45.3579 158.574C45.5819 158.135 45.8992 157.795 46.3099 157.552C46.7299 157.309 47.2385 157.188 47.8359 157.188V158.504H47.4999C46.0719 158.504 45.3579 159.279 45.3579 160.828V165H44.0839V157.328H45.3579V158.574ZM48.8305 161.136C48.8305 160.352 48.9892 159.666 49.3065 159.078C49.6238 158.481 50.0578 158.019 50.6085 157.692C51.1685 157.365 51.7938 157.202 52.4845 157.202C53.0818 157.202 53.6372 157.342 54.1505 157.622C54.6638 157.893 55.0558 158.252 55.3265 158.7V154.64H56.6145V165H55.3265V163.558C55.0745 164.015 54.7012 164.393 54.2065 164.692C53.7118 164.981 53.1332 165.126 52.4705 165.126C51.7892 165.126 51.1685 164.958 50.6085 164.622C50.0578 164.286 49.6238 163.815 49.3065 163.208C48.9892 162.601 48.8305 161.911 48.8305 161.136ZM55.3265 161.15C55.3265 160.571 55.2098 160.067 54.9765 159.638C54.7432 159.209 54.4258 158.882 54.0245 158.658C53.6325 158.425 53.1985 158.308 52.7225 158.308C52.2465 158.308 51.8125 158.42 51.4205 158.644C51.0285 158.868 50.7158 159.195 50.4825 159.624C50.2492 160.053 50.1325 160.557 50.1325 161.136C50.1325 161.724 50.2492 162.237 50.4825 162.676C50.7158 163.105 51.0285 163.437 51.4205 163.67C51.8125 163.894 52.2465 164.006 52.7225 164.006C53.1985 164.006 53.6325 163.894 54.0245 163.67C54.4258 163.437 54.7432 163.105 54.9765 162.676C55.2098 162.237 55.3265 161.729 55.3265 161.15ZM65.7675 160.87C65.7675 161.113 65.7535 161.369 65.7255 161.64H59.5935C59.6401 162.396 59.8968 162.989 60.3635 163.418C60.8395 163.838 61.4135 164.048 62.0855 164.048C62.6361 164.048 63.0935 163.922 63.4575 163.67C63.8308 163.409 64.0921 163.063 64.2415 162.634H65.6135C65.4081 163.371 64.9975 163.973 64.3815 164.44C63.7655 164.897 63.0001 165.126 62.0855 165.126C61.3575 165.126 60.7041 164.963 60.1255 164.636C59.5561 164.309 59.1081 163.847 58.7815 163.25C58.4548 162.643 58.2915 161.943 58.2915 161.15C58.2915 160.357 58.4501 159.661 58.7675 159.064C59.0848 158.467 59.5281 158.009 60.0975 157.692C60.6761 157.365 61.3388 157.202 62.0855 157.202C62.8135 157.202 63.4575 157.361 64.0175 157.678C64.5775 157.995 65.0068 158.434 65.3055 158.994C65.6135 159.545 65.7675 160.17 65.7675 160.87ZM64.4515 160.604C64.4515 160.119 64.3441 159.703 64.1295 159.358C63.9148 159.003 63.6208 158.737 63.2475 158.56C62.8835 158.373 62.4775 158.28 62.0295 158.28C61.3855 158.28 60.8348 158.485 60.3775 158.896C59.9295 159.307 59.6728 159.876 59.6075 160.604H64.4515ZM68.7231 158.574C68.9471 158.135 69.2644 157.795 69.6751 157.552C70.0951 157.309 70.6038 157.188 71.2011 157.188V158.504H70.8651C69.4371 158.504 68.7231 159.279 68.7231 160.828V165H67.4491V157.328H68.7231V158.574ZM75.9282 161.136C75.9282 160.352 76.0868 159.666 76.4042 159.078C76.7215 158.481 77.1555 158.019 77.7062 157.692C78.2662 157.365 78.8868 157.202 79.5682 157.202C80.2402 157.202 80.8235 157.347 81.3182 157.636C81.8128 157.925 82.1815 158.289 82.4242 158.728V157.328H83.7122V165H82.4242V163.572C82.1722 164.02 81.7942 164.393 81.2902 164.692C80.7955 164.981 80.2168 165.126 79.5542 165.126C78.8728 165.126 78.2568 164.958 77.7062 164.622C77.1555 164.286 76.7215 163.815 76.4042 163.208C76.0868 162.601 75.9282 161.911 75.9282 161.136ZM82.4242 161.15C82.4242 160.571 82.3075 160.067 82.0742 159.638C81.8408 159.209 81.5235 158.882 81.1222 158.658C80.7302 158.425 80.2962 158.308 79.8202 158.308C79.3442 158.308 78.9102 158.42 78.5182 158.644C78.1262 158.868 77.8135 159.195 77.5802 159.624C77.3468 160.053 77.2302 160.557 77.2302 161.136C77.2302 161.724 77.3468 162.237 77.5802 162.676C77.8135 163.105 78.1262 163.437 78.5182 163.67C78.9102 163.894 79.3442 164.006 79.8202 164.006C80.2962 164.006 80.7302 163.894 81.1222 163.67C81.5235 163.437 81.8408 163.105 82.0742 162.676C82.3075 162.237 82.4242 161.729 82.4242 161.15ZM87.1391 158.756C87.4004 158.299 87.7831 157.925 88.2871 157.636C88.7911 157.347 89.3651 157.202 90.0091 157.202C90.6998 157.202 91.3204 157.365 91.8711 157.692C92.4218 158.019 92.8558 158.481 93.1731 159.078C93.4904 159.666 93.6491 160.352 93.6491 161.136C93.6491 161.911 93.4904 162.601 93.1731 163.208C92.8558 163.815 92.4171 164.286 91.8571 164.622C91.3064 164.958 90.6904 165.126 90.0091 165.126C89.3464 165.126 88.7631 164.981 88.2591 164.692C87.7644 164.403 87.3911 164.034 87.1391 163.586V165H85.8651V154.64H87.1391V158.756ZM92.3471 161.136C92.3471 160.557 92.2304 160.053 91.9971 159.624C91.7638 159.195 91.4464 158.868 91.0451 158.644C90.6531 158.42 90.2191 158.308 89.7431 158.308C89.2764 158.308 88.8424 158.425 88.4411 158.658C88.0491 158.882 87.7318 159.213 87.4891 159.652C87.2558 160.081 87.1391 160.581 87.1391 161.15C87.1391 161.729 87.2558 162.237 87.4891 162.676C87.7318 163.105 88.0491 163.437 88.4411 163.67C88.8424 163.894 89.2764 164.006 89.7431 164.006C90.2191 164.006 90.6531 163.894 91.0451 163.67C91.4464 163.437 91.7638 163.105 91.9971 162.676C92.2304 162.237 92.3471 161.724 92.3471 161.136ZM98.672 165.126C97.9534 165.126 97.3 164.963 96.712 164.636C96.1334 164.309 95.676 163.847 95.34 163.25C95.0134 162.643 94.85 161.943 94.85 161.15C94.85 160.366 95.018 159.675 95.354 159.078C95.6994 158.471 96.166 158.009 96.754 157.692C97.342 157.365 98 157.202 98.728 157.202C99.456 157.202 100.114 157.365 100.702 157.692C101.29 158.009 101.752 158.467 102.088 159.064C102.433 159.661 102.606 160.357 102.606 161.15C102.606 161.943 102.429 162.643 102.074 163.25C101.729 163.847 101.257 164.309 100.66 164.636C100.063 164.963 99.4 165.126 98.672 165.126ZM98.672 164.006C99.1294 164.006 99.5587 163.899 99.96 163.684C100.361 163.469 100.683 163.147 100.926 162.718C101.178 162.289 101.304 161.766 101.304 161.15C101.304 160.534 101.183 160.011 100.94 159.582C100.697 159.153 100.38 158.835 99.988 158.63C99.596 158.415 99.1714 158.308 98.714 158.308C98.2474 158.308 97.818 158.415 97.426 158.63C97.0434 158.835 96.7354 159.153 96.502 159.582C96.2687 160.011 96.152 160.534 96.152 161.15C96.152 161.775 96.264 162.303 96.488 162.732C96.7214 163.161 97.0294 163.483 97.412 163.698C97.7947 163.903 98.2147 164.006 98.672 164.006ZM107.137 163.824L109.517 157.328H110.875L107.865 165H106.381L103.371 157.328H104.743L107.137 163.824ZM119.129 160.87C119.129 161.113 119.115 161.369 119.087 161.64H112.955C113.001 162.396 113.258 162.989 113.725 163.418C114.201 163.838 114.775 164.048 115.447 164.048C115.997 164.048 116.455 163.922 116.819 163.67C117.192 163.409 117.453 163.063 117.603 162.634H118.975C118.769 163.371 118.359 163.973 117.743 164.44C117.127 164.897 116.361 165.126 115.447 165.126C114.719 165.126 114.065 164.963 113.487 164.636C112.917 164.309 112.469 163.847 112.143 163.25C111.816 162.643 111.653 161.943 111.653 161.15C111.653 160.357 111.811 159.661 112.129 159.064C112.446 158.467 112.889 158.009 113.459 157.692C114.037 157.365 114.7 157.202 115.447 157.202C116.175 157.202 116.819 157.361 117.379 157.678C117.939 157.995 118.368 158.434 118.667 158.994C118.975 159.545 119.129 160.17 119.129 160.87ZM117.813 160.604C117.813 160.119 117.705 159.703 117.491 159.358C117.276 159.003 116.982 158.737 116.609 158.56C116.245 158.373 115.839 158.28 115.391 158.28C114.747 158.28 114.196 158.485 113.739 158.896C113.291 159.307 113.034 159.876 112.969 160.604H117.813ZM130.843 162.326C130.843 162.774 130.731 163.203 130.507 163.614C130.283 164.015 129.952 164.351 129.513 164.622C129.084 164.893 128.566 165.047 127.959 165.084V166.218H127.203V165.084C126.354 165.009 125.663 164.739 125.131 164.272C124.599 163.796 124.328 163.194 124.319 162.466H125.677C125.714 162.858 125.859 163.199 126.111 163.488C126.372 163.777 126.736 163.959 127.203 164.034V160.534C126.578 160.375 126.074 160.212 125.691 160.044C125.308 159.876 124.982 159.615 124.711 159.26C124.44 158.905 124.305 158.429 124.305 157.832C124.305 157.076 124.566 156.451 125.089 155.956C125.621 155.461 126.326 155.186 127.203 155.13V153.968H127.959V155.13C128.752 155.195 129.392 155.452 129.877 155.9C130.362 156.339 130.642 156.913 130.717 157.622H129.359C129.312 157.295 129.168 157.001 128.925 156.74C128.682 156.469 128.36 156.292 127.959 156.208V159.624C128.575 159.783 129.074 159.946 129.457 160.114C129.849 160.273 130.176 160.529 130.437 160.884C130.708 161.239 130.843 161.719 130.843 162.326ZM125.607 157.762C125.607 158.219 125.742 158.569 126.013 158.812C126.284 159.055 126.68 159.255 127.203 159.414V156.18C126.718 156.227 126.33 156.385 126.041 156.656C125.752 156.917 125.607 157.286 125.607 157.762ZM127.959 164.048C128.463 163.992 128.855 163.81 129.135 163.502C129.424 163.194 129.569 162.825 129.569 162.396C129.569 161.939 129.429 161.589 129.149 161.346C128.869 161.094 128.472 160.893 127.959 160.744V164.048ZM132.888 163.978C134.073 163.026 135.002 162.247 135.674 161.64C136.346 161.024 136.91 160.385 137.368 159.722C137.834 159.05 138.068 158.392 138.068 157.748C138.068 157.141 137.918 156.665 137.62 156.32C137.33 155.965 136.859 155.788 136.206 155.788C135.571 155.788 135.076 155.989 134.722 156.39C134.376 156.782 134.19 157.309 134.162 157.972H132.93C132.967 156.927 133.284 156.119 133.882 155.55C134.479 154.981 135.249 154.696 136.192 154.696C137.153 154.696 137.914 154.962 138.474 155.494C139.043 156.026 139.328 156.759 139.328 157.692C139.328 158.467 139.094 159.223 138.628 159.96C138.17 160.688 137.648 161.332 137.06 161.892C136.472 162.443 135.72 163.087 134.806 163.824H139.622V164.888H132.888V163.978ZM141.095 159.834C141.095 158.229 141.356 156.978 141.879 156.082C142.401 155.177 143.316 154.724 144.623 154.724C145.92 154.724 146.83 155.177 147.353 156.082C147.875 156.978 148.137 158.229 148.137 159.834C148.137 161.467 147.875 162.737 147.353 163.642C146.83 164.547 145.92 165 144.623 165C143.316 165 142.401 164.547 141.879 163.642C141.356 162.737 141.095 161.467 141.095 159.834ZM146.877 159.834C146.877 159.022 146.821 158.336 146.709 157.776C146.606 157.207 146.387 156.749 146.051 156.404C145.724 156.059 145.248 155.886 144.623 155.886C143.988 155.886 143.503 156.059 143.167 156.404C142.84 156.749 142.621 157.207 142.509 157.776C142.406 158.336 142.355 159.022 142.355 159.834C142.355 160.674 142.406 161.379 142.509 161.948C142.621 162.517 142.84 162.975 143.167 163.32C143.503 163.665 143.988 163.838 144.623 163.838C145.248 163.838 145.724 163.665 146.051 163.32C146.387 162.975 146.606 162.517 146.709 161.948C146.821 161.379 146.877 160.674 146.877 159.834ZM149.886 159.834C149.886 158.229 150.147 156.978 150.67 156.082C151.192 155.177 152.107 154.724 153.414 154.724C154.711 154.724 155.621 155.177 156.144 156.082C156.666 156.978 156.928 158.229 156.928 159.834C156.928 161.467 156.666 162.737 156.144 163.642C155.621 164.547 154.711 165 153.414 165C152.107 165 151.192 164.547 150.67 163.642C150.147 162.737 149.886 161.467 149.886 159.834ZM155.668 159.834C155.668 159.022 155.612 158.336 155.5 157.776C155.397 157.207 155.178 156.749 154.842 156.404C154.515 156.059 154.039 155.886 153.414 155.886C152.779 155.886 152.294 156.059 151.958 156.404C151.631 156.749 151.412 157.207 151.3 157.776C151.197 158.336 151.146 159.022 151.146 159.834C151.146 160.674 151.197 161.379 151.3 161.948C151.412 162.517 151.631 162.975 151.958 163.32C152.294 163.665 152.779 163.838 153.414 163.838C154.039 163.838 154.515 163.665 154.842 163.32C155.178 162.975 155.397 162.517 155.5 161.948C155.612 161.379 155.668 160.674 155.668 159.834Z" fill="#6C7275"/>
</svg>
