<svg width="1440" height="56" viewBox="0 0 1440 56" fill="none" xmlns="http://www.w3.org/2000/svg">
<rect width="1440" height="56" fill="white"/>
<rect width="1440" height="56" fill="#FFAB00" fill-opacity="0.64"/>
<path d="M161.662 22.824C161.758 21.336 162.326 20.176 163.366 19.344C164.422 18.512 165.766 18.096 167.398 18.096C168.518 18.096 169.486 18.296 170.302 18.696C171.118 19.096 171.734 19.64 172.15 20.328C172.566 21.016 172.774 21.792 172.774 22.656C172.774 23.648 172.51 24.496 171.982 25.2C171.454 25.904 170.822 26.376 170.086 26.616V26.712C171.03 27 171.766 27.528 172.294 28.296C172.822 29.048 173.086 30.016 173.086 31.2C173.086 32.144 172.87 32.984 172.438 33.72C172.006 34.456 171.366 35.04 170.518 35.472C169.67 35.888 168.654 36.096 167.47 36.096C165.742 36.096 164.318 35.656 163.198 34.776C162.094 33.88 161.502 32.6 161.422 30.936H164.062C164.126 31.784 164.454 32.48 165.046 33.024C165.638 33.552 166.438 33.816 167.446 33.816C168.422 33.816 169.174 33.552 169.702 33.024C170.23 32.48 170.494 31.784 170.494 30.936C170.494 29.816 170.134 29.024 169.414 28.56C168.71 28.08 167.622 27.84 166.15 27.84H165.526V25.584H166.174C167.47 25.568 168.454 25.352 169.126 24.936C169.814 24.52 170.158 23.864 170.158 22.968C170.158 22.2 169.91 21.592 169.414 21.144C168.918 20.68 168.214 20.448 167.302 20.448C166.406 20.448 165.71 20.68 165.214 21.144C164.718 21.592 164.422 22.152 164.326 22.824H161.662ZM179.056 18.24V36H176.32V18.24H179.056ZM194.768 29.064C194.768 29.56 194.736 30.008 194.672 30.408H184.568C184.648 31.464 185.04 32.312 185.744 32.952C186.448 33.592 187.312 33.912 188.336 33.912C189.808 33.912 190.848 33.296 191.456 32.064H194.408C194.008 33.28 193.28 34.28 192.224 35.064C191.184 35.832 189.888 36.216 188.336 36.216C187.072 36.216 185.936 35.936 184.928 35.376C183.936 34.8 183.152 34 182.576 32.976C182.016 31.936 181.736 30.736 181.736 29.376C181.736 28.016 182.008 26.824 182.552 25.8C183.112 24.76 183.888 23.96 184.88 23.4C185.888 22.84 187.04 22.56 188.336 22.56C189.584 22.56 190.696 22.832 191.672 23.376C192.648 23.92 193.408 24.688 193.952 25.68C194.496 26.656 194.768 27.784 194.768 29.064ZM191.912 28.2C191.896 27.192 191.536 26.384 190.832 25.776C190.128 25.168 189.256 24.864 188.216 24.864C187.272 24.864 186.464 25.168 185.792 25.776C185.12 26.368 184.72 27.176 184.592 28.2H191.912ZM202.788 22.56C203.812 22.56 204.716 22.768 205.5 23.184C206.3 23.584 206.924 24.088 207.372 24.696V22.776H210.132V36.216C210.132 37.432 209.876 38.512 209.364 39.456C208.852 40.416 208.108 41.168 207.132 41.712C206.172 42.256 205.02 42.528 203.676 42.528C201.884 42.528 200.396 42.104 199.212 41.256C198.028 40.424 197.356 39.288 197.196 37.848H199.908C200.116 38.536 200.556 39.088 201.228 39.504C201.916 39.936 202.732 40.152 203.676 40.152C204.78 40.152 205.668 39.816 206.34 39.144C207.028 38.472 207.372 37.496 207.372 36.216V34.008C206.908 34.632 206.276 35.16 205.476 35.592C204.692 36.008 203.796 36.216 202.788 36.216C201.636 36.216 200.58 35.928 199.62 35.352C198.676 34.76 197.924 33.944 197.364 32.904C196.82 31.848 196.548 30.656 196.548 29.328C196.548 28 196.82 26.824 197.364 25.8C197.924 24.776 198.676 23.984 199.62 23.424C200.58 22.848 201.636 22.56 202.788 22.56ZM207.372 29.376C207.372 28.464 207.18 27.672 206.796 27C206.428 26.328 205.94 25.816 205.332 25.464C204.724 25.112 204.068 24.936 203.364 24.936C202.66 24.936 202.004 25.112 201.396 25.464C200.788 25.8 200.292 26.304 199.908 26.976C199.54 27.632 199.356 28.416 199.356 29.328C199.356 30.24 199.54 31.04 199.908 31.728C200.292 32.416 200.788 32.944 201.396 33.312C202.02 33.664 202.676 33.84 203.364 33.84C204.068 33.84 204.724 33.664 205.332 33.312C205.94 32.96 206.428 32.448 206.796 31.776C207.18 31.088 207.372 30.288 207.372 29.376ZM212.814 29.328C212.814 28 213.086 26.824 213.63 25.8C214.19 24.776 214.942 23.984 215.886 23.424C216.846 22.848 217.902 22.56 219.054 22.56C220.094 22.56 220.998 22.768 221.766 23.184C222.55 23.584 223.174 24.088 223.638 24.696V22.776H226.398V36H223.638V34.032C223.174 34.656 222.542 35.176 221.742 35.592C220.942 36.008 220.03 36.216 219.006 36.216C217.87 36.216 216.83 35.928 215.886 35.352C214.942 34.76 214.19 33.944 213.63 32.904C213.086 31.848 212.814 30.656 212.814 29.328ZM223.638 29.376C223.638 28.464 223.446 27.672 223.062 27C222.694 26.328 222.206 25.816 221.598 25.464C220.99 25.112 220.334 24.936 219.63 24.936C218.926 24.936 218.27 25.112 217.662 25.464C217.054 25.8 216.558 26.304 216.174 26.976C215.806 27.632 215.622 28.416 215.622 29.328C215.622 30.24 215.806 31.04 216.174 31.728C216.558 32.416 217.054 32.944 217.662 33.312C218.286 33.664 218.942 33.84 219.63 33.84C220.334 33.84 220.99 33.664 221.598 33.312C222.206 32.96 222.694 32.448 223.062 31.776C223.446 31.088 223.638 30.288 223.638 29.376ZM236.663 22.56C237.703 22.56 238.631 22.776 239.447 23.208C240.279 23.64 240.927 24.28 241.391 25.128C241.855 25.976 242.087 27 242.087 28.2V36H239.375V28.608C239.375 27.424 239.079 26.52 238.487 25.896C237.895 25.256 237.087 24.936 236.063 24.936C235.039 24.936 234.223 25.256 233.615 25.896C233.023 26.52 232.727 27.424 232.727 28.608V36H229.991V22.776H232.727V24.288C233.175 23.744 233.743 23.32 234.431 23.016C235.135 22.712 235.879 22.56 236.663 22.56ZM248.769 25.008V32.328C248.769 32.824 248.881 33.184 249.105 33.408C249.345 33.616 249.745 33.72 250.305 33.72H251.985V36H249.825C248.593 36 247.649 35.712 246.993 35.136C246.337 34.56 246.009 33.624 246.009 32.328V25.008H244.449V22.776H246.009V19.488H248.769V22.776H251.985V25.008H248.769Z" fill="black"/>
<path d="M255.611 36.168C255.115 36.168 254.699 36 254.363 35.664C254.027 35.328 253.859 34.912 253.859 34.416C253.859 33.92 254.027 33.504 254.363 33.168C254.699 32.832 255.115 32.664 255.611 32.664C256.091 32.664 256.499 32.832 256.835 33.168C257.171 33.504 257.339 33.92 257.339 34.416C257.339 34.912 257.171 35.328 256.835 35.664C256.499 36 256.091 36.168 255.611 36.168Z" fill="#141718"/>
<path d="M579.522 33V23.2H581.034V27.4H585.15V23.2H586.662V33H585.15V28.772H581.034V33H579.522ZM591.986 33.196C591.295 33.196 590.679 33.056 590.138 32.776C589.606 32.4867 589.186 32.076 588.878 31.544C588.57 31.012 588.416 30.382 588.416 29.654V29.444C588.416 28.716 588.57 28.0907 588.878 27.568C589.186 27.036 589.606 26.6253 590.138 26.336C590.679 26.0467 591.295 25.902 591.986 25.902C592.676 25.902 593.292 26.0467 593.834 26.336C594.375 26.6253 594.8 27.036 595.108 27.568C595.416 28.0907 595.57 28.716 595.57 29.444V29.654C595.57 30.382 595.416 31.012 595.108 31.544C594.8 32.076 594.375 32.4867 593.834 32.776C593.292 33.056 592.676 33.196 591.986 33.196ZM591.986 31.908C592.62 31.908 593.134 31.7073 593.526 31.306C593.927 30.8953 594.128 30.3307 594.128 29.612V29.486C594.128 28.7673 593.932 28.2073 593.54 27.806C593.148 27.3953 592.63 27.19 591.986 27.19C591.36 27.19 590.847 27.3953 590.446 27.806C590.054 28.2073 589.858 28.7673 589.858 29.486V29.612C589.858 30.3307 590.054 30.8953 590.446 31.306C590.847 31.7073 591.36 31.908 591.986 31.908ZM597.365 33V26.098H598.779V26.91H599.003C599.133 26.6673 599.343 26.4527 599.633 26.266C599.922 26.0793 600.314 25.986 600.809 25.986C601.322 25.986 601.733 26.0933 602.041 26.308C602.358 26.5133 602.596 26.7793 602.755 27.106H602.979C603.137 26.7887 603.366 26.5227 603.665 26.308C603.973 26.0933 604.407 25.986 604.967 25.986C605.415 25.986 605.811 26.0793 606.157 26.266C606.502 26.4433 606.777 26.714 606.983 27.078C607.188 27.4327 607.291 27.876 607.291 28.408V33H605.849V28.52C605.849 28.1 605.732 27.778 605.499 27.554C605.275 27.3207 604.953 27.204 604.533 27.204C604.085 27.204 603.725 27.3487 603.455 27.638C603.184 27.9273 603.049 28.3427 603.049 28.884V33H601.607V28.52C601.607 28.1 601.49 27.778 601.257 27.554C601.033 27.3207 600.711 27.204 600.291 27.204C599.843 27.204 599.483 27.3487 599.213 27.638C598.942 27.9273 598.807 28.3427 598.807 28.884V33H597.365ZM612.533 33.196C611.833 33.196 611.221 33.0513 610.699 32.762C610.176 32.4633 609.765 32.048 609.467 31.516C609.177 30.9747 609.033 30.3493 609.033 29.64V29.472C609.033 28.7533 609.177 28.128 609.467 27.596C609.756 27.0547 610.157 26.6393 610.671 26.35C611.193 26.0513 611.795 25.902 612.477 25.902C613.139 25.902 613.718 26.0513 614.213 26.35C614.717 26.6393 615.109 27.0453 615.389 27.568C615.669 28.0907 615.809 28.702 615.809 29.402V29.948H610.503C610.521 30.5547 610.722 31.04 611.105 31.404C611.497 31.7587 611.982 31.936 612.561 31.936C613.102 31.936 613.508 31.8147 613.779 31.572C614.059 31.3293 614.273 31.0493 614.423 30.732L615.613 31.348C615.482 31.6093 615.291 31.8847 615.039 32.174C614.796 32.4633 614.474 32.706 614.073 32.902C613.671 33.098 613.158 33.196 612.533 33.196ZM610.517 28.842H614.339C614.301 28.3193 614.115 27.9133 613.779 27.624C613.443 27.3253 613.004 27.176 612.463 27.176C611.921 27.176 611.478 27.3253 611.133 27.624C610.797 27.9133 610.591 28.3193 610.517 28.842Z" fill="#141718"/>
<path d="M660.854 33.196C660.117 33.196 659.463 33.0653 658.894 32.804C658.325 32.5427 657.877 32.16 657.55 31.656C657.233 31.1427 657.074 30.522 657.074 29.794V29.444H658.572V29.794C658.572 30.4847 658.777 31.0027 659.188 31.348C659.608 31.6933 660.163 31.866 660.854 31.866C661.554 31.866 662.081 31.7213 662.436 31.432C662.791 31.1333 662.968 30.7507 662.968 30.284C662.968 29.976 662.884 29.724 662.716 29.528C662.548 29.332 662.31 29.178 662.002 29.066C661.694 28.9447 661.325 28.8327 660.896 28.73L660.378 28.604C659.753 28.4547 659.207 28.2727 658.74 28.058C658.283 27.834 657.928 27.54 657.676 27.176C657.424 26.812 657.298 26.3453 657.298 25.776C657.298 25.1973 657.438 24.7027 657.718 24.292C658.007 23.8813 658.404 23.564 658.908 23.34C659.412 23.116 660.005 23.004 660.686 23.004C661.367 23.004 661.974 23.1207 662.506 23.354C663.047 23.5873 663.472 23.9327 663.78 24.39C664.088 24.8473 664.242 25.4213 664.242 26.112V26.616H662.744V26.112C662.744 25.692 662.655 25.3513 662.478 25.09C662.31 24.8287 662.072 24.6373 661.764 24.516C661.456 24.3947 661.097 24.334 660.686 24.334C660.089 24.334 659.622 24.46 659.286 24.712C658.959 24.9547 658.796 25.2953 658.796 25.734C658.796 26.0327 658.866 26.28 659.006 26.476C659.155 26.6627 659.37 26.8167 659.65 26.938C659.93 27.0593 660.28 27.1667 660.7 27.26L661.218 27.386C661.853 27.526 662.413 27.708 662.898 27.932C663.383 28.1467 663.766 28.4407 664.046 28.814C664.326 29.1873 664.466 29.668 664.466 30.256C664.466 30.844 664.317 31.3573 664.018 31.796C663.729 32.2347 663.313 32.58 662.772 32.832C662.231 33.0747 661.591 33.196 660.854 33.196ZM666.095 33V23.2H667.537V27.078H667.761C667.855 26.9007 667.985 26.728 668.153 26.56C668.331 26.392 668.559 26.2567 668.839 26.154C669.129 26.042 669.493 25.986 669.931 25.986C670.454 25.986 670.916 26.1027 671.317 26.336C671.728 26.5693 672.05 26.9007 672.283 27.33C672.517 27.75 672.633 28.2587 672.633 28.856V33H671.191V28.968C671.191 28.3707 671.042 27.932 670.743 27.652C670.445 27.3627 670.034 27.218 669.511 27.218C668.914 27.218 668.433 27.414 668.069 27.806C667.715 28.198 667.537 28.7673 667.537 29.514V33H666.095ZM677.943 33.196C677.252 33.196 676.636 33.056 676.095 32.776C675.563 32.4867 675.143 32.076 674.835 31.544C674.527 31.012 674.373 30.382 674.373 29.654V29.444C674.373 28.716 674.527 28.0907 674.835 27.568C675.143 27.036 675.563 26.6253 676.095 26.336C676.636 26.0467 677.252 25.902 677.943 25.902C678.633 25.902 679.249 26.0467 679.791 26.336C680.332 26.6253 680.757 27.036 681.065 27.568C681.373 28.0907 681.527 28.716 681.527 29.444V29.654C681.527 30.382 681.373 31.012 681.065 31.544C680.757 32.076 680.332 32.4867 679.791 32.776C679.249 33.056 678.633 33.196 677.943 33.196ZM677.943 31.908C678.577 31.908 679.091 31.7073 679.483 31.306C679.884 30.8953 680.085 30.3307 680.085 29.612V29.486C680.085 28.7673 679.889 28.2073 679.497 27.806C679.105 27.3953 678.587 27.19 677.943 27.19C677.317 27.19 676.804 27.3953 676.403 27.806C676.011 28.2073 675.815 28.7673 675.815 29.486V29.612C675.815 30.3307 676.011 30.8953 676.403 31.306C676.804 31.7073 677.317 31.908 677.943 31.908ZM683.322 35.8V26.098H684.736V27.092H684.96C685.137 26.784 685.403 26.5087 685.758 26.266C686.122 26.0233 686.64 25.902 687.312 25.902C687.89 25.902 688.418 26.042 688.894 26.322C689.379 26.602 689.766 27.008 690.056 27.54C690.354 28.0627 690.504 28.6973 690.504 29.444V29.654C690.504 30.4007 690.359 31.04 690.07 31.572C689.78 32.0947 689.393 32.496 688.908 32.776C688.422 33.056 687.89 33.196 687.312 33.196C686.864 33.196 686.486 33.14 686.178 33.028C685.87 32.916 685.622 32.776 685.436 32.608C685.249 32.4307 685.1 32.2487 684.988 32.062H684.764V35.8H683.322ZM686.892 31.936C687.526 31.936 688.044 31.7353 688.446 31.334C688.847 30.9327 689.048 30.3587 689.048 29.612V29.486C689.048 28.7487 688.842 28.1793 688.432 27.778C688.03 27.3767 687.517 27.176 686.892 27.176C686.276 27.176 685.762 27.3767 685.352 27.778C684.95 28.1793 684.75 28.7487 684.75 29.486V29.612C684.75 30.3587 684.95 30.9327 685.352 31.334C685.762 31.7353 686.276 31.936 686.892 31.936Z" fill="#141718"/>
<path d="M698.204 25.75L702.704 30.25L707.204 25.75" stroke="#141718" stroke-width="1.125" stroke-linecap="round" stroke-linejoin="round"/>
<path d="M752.522 33V23.2H756.414C757.011 23.2 757.543 23.3213 758.01 23.564C758.486 23.7973 758.855 24.1333 759.116 24.572C759.387 25.0013 759.522 25.5193 759.522 26.126V26.308C759.522 26.9147 759.382 27.4373 759.102 27.876C758.831 28.3147 758.463 28.6507 757.996 28.884C757.529 29.1173 757.002 29.234 756.414 29.234H754.034V33H752.522ZM754.034 27.862H756.26C756.792 27.862 757.217 27.722 757.534 27.442C757.851 27.162 758.01 26.7793 758.01 26.294V26.154C758.01 25.6593 757.851 25.272 757.534 24.992C757.217 24.712 756.792 24.572 756.26 24.572H754.034V27.862ZM761 33V26.098H762.414V26.91H762.638C762.75 26.6207 762.927 26.4107 763.17 26.28C763.422 26.14 763.73 26.07 764.094 26.07H764.92V27.372H764.038C763.571 27.372 763.188 27.5027 762.89 27.764C762.591 28.016 762.442 28.408 762.442 28.94V33H761ZM769.402 33.196C768.711 33.196 768.095 33.056 767.554 32.776C767.022 32.4867 766.602 32.076 766.294 31.544C765.986 31.012 765.832 30.382 765.832 29.654V29.444C765.832 28.716 765.986 28.0907 766.294 27.568C766.602 27.036 767.022 26.6253 767.554 26.336C768.095 26.0467 768.711 25.902 769.402 25.902C770.092 25.902 770.708 26.0467 771.25 26.336C771.791 26.6253 772.216 27.036 772.524 27.568C772.832 28.0907 772.986 28.716 772.986 29.444V29.654C772.986 30.382 772.832 31.012 772.524 31.544C772.216 32.076 771.791 32.4867 771.25 32.776C770.708 33.056 770.092 33.196 769.402 33.196ZM769.402 31.908C770.036 31.908 770.55 31.7073 770.942 31.306C771.343 30.8953 771.544 30.3307 771.544 29.612V29.486C771.544 28.7673 771.348 28.2073 770.956 27.806C770.564 27.3953 770.046 27.19 769.402 27.19C768.776 27.19 768.263 27.3953 767.862 27.806C767.47 28.2073 767.274 28.7673 767.274 29.486V29.612C767.274 30.3307 767.47 30.8953 767.862 31.306C768.263 31.7073 768.776 31.908 769.402 31.908ZM777.637 33.196C777.067 33.196 776.54 33.056 776.055 32.776C775.569 32.496 775.177 32.0947 774.879 31.572C774.589 31.04 774.445 30.4007 774.445 29.654V29.444C774.445 28.7067 774.589 28.072 774.879 27.54C775.168 27.008 775.555 26.602 776.041 26.322C776.526 26.042 777.058 25.902 777.637 25.902C778.085 25.902 778.458 25.958 778.757 26.07C779.065 26.182 779.317 26.3267 779.513 26.504C779.709 26.672 779.858 26.8493 779.961 27.036H780.185V23.2H781.627V33H780.213V32.02H779.989C779.811 32.3187 779.541 32.5893 779.177 32.832C778.822 33.0747 778.309 33.196 777.637 33.196ZM778.043 31.936C778.668 31.936 779.181 31.7353 779.583 31.334C779.993 30.9327 780.199 30.3587 780.199 29.612V29.486C780.199 28.7487 779.998 28.1793 779.597 27.778C779.195 27.3767 778.677 27.176 778.043 27.176C777.427 27.176 776.913 27.3767 776.503 27.778C776.101 28.1793 775.901 28.7487 775.901 29.486V29.612C775.901 30.3587 776.101 30.9327 776.503 31.334C776.913 31.7353 777.427 31.936 778.043 31.936ZM786.396 33.126C785.873 33.126 785.406 33.0093 784.996 32.776C784.585 32.5427 784.263 32.2113 784.03 31.782C783.796 31.3527 783.68 30.8393 783.68 30.242V26.098H785.122V30.144C785.122 30.7413 785.271 31.1847 785.57 31.474C785.868 31.754 786.284 31.894 786.816 31.894C787.404 31.894 787.875 31.698 788.23 31.306C788.594 30.9047 788.776 30.3307 788.776 29.584V26.098H790.218V33H788.804V31.964H788.58C788.449 32.244 788.216 32.51 787.88 32.762C787.544 33.0047 787.049 33.126 786.396 33.126ZM795.555 33.196C794.892 33.196 794.29 33.056 793.749 32.776C793.217 32.496 792.792 32.09 792.475 31.558C792.167 31.026 792.013 30.3867 792.013 29.64V29.458C792.013 28.7113 792.167 28.0767 792.475 27.554C792.792 27.022 793.217 26.616 793.749 26.336C794.29 26.0467 794.892 25.902 795.555 25.902C796.218 25.902 796.782 26.0233 797.249 26.266C797.716 26.5087 798.089 26.8307 798.369 27.232C798.658 27.6333 798.845 28.0767 798.929 28.562L797.529 28.856C797.482 28.548 797.384 28.268 797.235 28.016C797.086 27.764 796.876 27.5633 796.605 27.414C796.334 27.2647 795.994 27.19 795.583 27.19C795.182 27.19 794.818 27.2833 794.491 27.47C794.174 27.6473 793.922 27.9087 793.735 28.254C793.548 28.59 793.455 29.0007 793.455 29.486V29.612C793.455 30.0973 793.548 30.5127 793.735 30.858C793.922 31.2033 794.174 31.4647 794.491 31.642C794.818 31.8193 795.182 31.908 795.583 31.908C796.19 31.908 796.652 31.754 796.969 31.446C797.286 31.1287 797.487 30.7273 797.571 30.242L798.971 30.564C798.859 31.04 798.658 31.4787 798.369 31.88C798.089 32.2813 797.716 32.6033 797.249 32.846C796.782 33.0793 796.218 33.196 795.555 33.196ZM802.965 33C802.545 33 802.209 32.874 801.957 32.622C801.714 32.37 801.593 32.034 801.593 31.614V27.316H799.689V26.098H801.593V23.816H803.035V26.098H805.093V27.316H803.035V31.362C803.035 31.642 803.165 31.782 803.427 31.782H804.869V33H802.965Z" fill="#141718"/>
<path d="M813.204 25.75L817.704 30.25L822.204 25.75" stroke="#141718" stroke-width="1.125" stroke-linecap="round" stroke-linejoin="round"/>
<path d="M871.162 33.196C869.967 33.196 869.02 32.86 868.32 32.188C867.62 31.5067 867.27 30.5267 867.27 29.248V26.952C867.27 25.6733 867.62 24.698 868.32 24.026C869.02 23.3447 869.967 23.004 871.162 23.004C872.338 23.004 873.243 23.3307 873.878 23.984C874.522 24.6373 874.844 25.5287 874.844 26.658V26.742H873.346V26.616C873.346 25.9533 873.164 25.412 872.8 24.992C872.445 24.572 871.899 24.362 871.162 24.362C870.415 24.362 869.832 24.5907 869.412 25.048C868.992 25.496 868.782 26.1213 868.782 26.924V29.276C868.782 30.0693 868.992 30.6947 869.412 31.152C869.832 31.6093 870.415 31.838 871.162 31.838C871.899 31.838 872.445 31.628 872.8 31.208C873.164 30.7787 873.346 30.2373 873.346 29.584V29.346H874.844V29.542C874.844 30.6713 874.522 31.5627 873.878 32.216C873.243 32.8693 872.338 33.196 871.162 33.196ZM879.794 33.196C879.103 33.196 878.487 33.056 877.946 32.776C877.414 32.4867 876.994 32.076 876.686 31.544C876.378 31.012 876.224 30.382 876.224 29.654V29.444C876.224 28.716 876.378 28.0907 876.686 27.568C876.994 27.036 877.414 26.6253 877.946 26.336C878.487 26.0467 879.103 25.902 879.794 25.902C880.485 25.902 881.101 26.0467 881.642 26.336C882.183 26.6253 882.608 27.036 882.916 27.568C883.224 28.0907 883.378 28.716 883.378 29.444V29.654C883.378 30.382 883.224 31.012 882.916 31.544C882.608 32.076 882.183 32.4867 881.642 32.776C881.101 33.056 880.485 33.196 879.794 33.196ZM879.794 31.908C880.429 31.908 880.942 31.7073 881.334 31.306C881.735 30.8953 881.936 30.3307 881.936 29.612V29.486C881.936 28.7673 881.74 28.2073 881.348 27.806C880.956 27.3953 880.438 27.19 879.794 27.19C879.169 27.19 878.655 27.3953 878.254 27.806C877.862 28.2073 877.666 28.7673 877.666 29.486V29.612C877.666 30.3307 877.862 30.8953 878.254 31.306C878.655 31.7073 879.169 31.908 879.794 31.908ZM885.173 33V26.098H886.587V27.134H886.811C886.942 26.854 887.175 26.5927 887.511 26.35C887.847 26.1073 888.347 25.986 889.009 25.986C889.532 25.986 889.994 26.1027 890.395 26.336C890.806 26.5693 891.128 26.9007 891.361 27.33C891.595 27.75 891.711 28.2587 891.711 28.856V33H890.269V28.968C890.269 28.3707 890.12 27.932 889.821 27.652C889.523 27.3627 889.112 27.218 888.589 27.218C887.992 27.218 887.511 27.414 887.147 27.806C886.793 28.198 886.615 28.7673 886.615 29.514V33H885.173ZM896.185 33C895.765 33 895.429 32.874 895.177 32.622C894.935 32.37 894.813 32.034 894.813 31.614V27.316H892.909V26.098H894.813V23.816H896.255V26.098H898.313V27.316H896.255V31.362C896.255 31.642 896.386 31.782 896.647 31.782H898.089V33H896.185ZM902.136 33.196C901.641 33.196 901.198 33.112 900.806 32.944C900.423 32.776 900.115 32.5287 899.882 32.202C899.658 31.8753 899.546 31.4787 899.546 31.012C899.546 30.536 899.658 30.144 899.882 29.836C900.115 29.5187 900.428 29.2807 900.82 29.122C901.221 28.9633 901.674 28.884 902.178 28.884H904.278V28.436C904.278 28.0347 904.156 27.7127 903.914 27.47C903.671 27.2273 903.298 27.106 902.794 27.106C902.299 27.106 901.921 27.2227 901.66 27.456C901.398 27.6893 901.226 27.9927 901.142 28.366L899.798 27.932C899.91 27.5587 900.087 27.2227 900.33 26.924C900.582 26.616 900.913 26.3687 901.324 26.182C901.734 25.9953 902.229 25.902 902.808 25.902C903.704 25.902 904.408 26.1307 904.922 26.588C905.435 27.0453 905.692 27.694 905.692 28.534V31.376C905.692 31.656 905.822 31.796 906.084 31.796H906.672V33H905.594C905.267 33 905.001 32.916 904.796 32.748C904.59 32.58 904.488 32.3513 904.488 32.062V32.02H904.278C904.203 32.16 904.091 32.3233 903.942 32.51C903.792 32.6967 903.573 32.86 903.284 33C902.994 33.1307 902.612 33.196 902.136 33.196ZM902.346 32.006C902.924 32.006 903.391 31.8427 903.746 31.516C904.1 31.18 904.278 30.7227 904.278 30.144V30.004H902.262C901.879 30.004 901.571 30.088 901.338 30.256C901.104 30.4147 900.988 30.6527 900.988 30.97C900.988 31.2873 901.109 31.5393 901.352 31.726C901.594 31.9127 901.926 32.006 902.346 32.006ZM911.116 33.196C910.453 33.196 909.851 33.056 909.31 32.776C908.778 32.496 908.353 32.09 908.036 31.558C907.728 31.026 907.574 30.3867 907.574 29.64V29.458C907.574 28.7113 907.728 28.0767 908.036 27.554C908.353 27.022 908.778 26.616 909.31 26.336C909.851 26.0467 910.453 25.902 911.116 25.902C911.778 25.902 912.343 26.0233 912.81 26.266C913.276 26.5087 913.65 26.8307 913.93 27.232C914.219 27.6333 914.406 28.0767 914.49 28.562L913.09 28.856C913.043 28.548 912.945 28.268 912.796 28.016C912.646 27.764 912.436 27.5633 912.166 27.414C911.895 27.2647 911.554 27.19 911.144 27.19C910.742 27.19 910.378 27.2833 910.052 27.47C909.734 27.6473 909.482 27.9087 909.296 28.254C909.109 28.59 909.016 29.0007 909.016 29.486V29.612C909.016 30.0973 909.109 30.5127 909.296 30.858C909.482 31.2033 909.734 31.4647 910.052 31.642C910.378 31.8193 910.742 31.908 911.144 31.908C911.75 31.908 912.212 31.754 912.53 31.446C912.847 31.1287 913.048 30.7273 913.132 30.242L914.532 30.564C914.42 31.04 914.219 31.4787 913.93 31.88C913.65 32.2813 913.276 32.6033 912.81 32.846C912.343 33.0793 911.778 33.196 911.116 33.196ZM918.525 33C918.105 33 917.769 32.874 917.517 32.622C917.274 32.37 917.153 32.034 917.153 31.614V27.316H915.249V26.098H917.153V23.816H918.595V26.098H920.653V27.316H918.595V31.362C918.595 31.642 918.726 31.782 918.987 31.782H920.429V33H918.525ZM929.542 33.196C928.767 33.196 928.1 33.056 927.54 32.776C926.989 32.496 926.56 32.0947 926.252 31.572C925.953 31.04 925.804 30.396 925.804 29.64V23.2H927.33V29.682C927.33 30.3727 927.521 30.9047 927.904 31.278C928.286 31.6513 928.832 31.838 929.542 31.838C930.251 31.838 930.797 31.6513 931.18 31.278C931.562 30.9047 931.754 30.3727 931.754 29.682V23.2H933.266V29.64C933.266 30.396 933.116 31.04 932.818 31.572C932.519 32.0947 932.09 32.496 931.53 32.776C930.97 33.056 930.307 33.196 929.542 33.196ZM938.109 33.196C937.231 33.196 936.503 33 935.925 32.608C935.346 32.216 934.991 31.6233 934.861 30.83L936.205 30.508C936.279 30.8907 936.405 31.194 936.583 31.418C936.76 31.642 936.979 31.8007 937.241 31.894C937.511 31.9873 937.801 32.034 938.109 32.034C938.566 32.034 938.916 31.9453 939.159 31.768C939.411 31.5907 939.537 31.362 939.537 31.082C939.537 30.802 939.42 30.5967 939.187 30.466C938.953 30.3353 938.608 30.228 938.151 30.144L937.675 30.06C937.208 29.976 936.783 29.8547 936.401 29.696C936.018 29.5373 935.715 29.318 935.491 29.038C935.267 28.758 935.155 28.3987 935.155 27.96C935.155 27.3067 935.397 26.8027 935.883 26.448C936.368 26.084 937.012 25.902 937.815 25.902C938.589 25.902 939.224 26.0793 939.719 26.434C940.223 26.7793 940.549 27.2507 940.699 27.848L939.355 28.226C939.271 27.806 939.093 27.512 938.823 27.344C938.552 27.1667 938.216 27.078 937.815 27.078C937.423 27.078 937.115 27.1527 936.891 27.302C936.667 27.442 936.555 27.6427 936.555 27.904C936.555 28.184 936.662 28.3893 936.877 28.52C937.101 28.6507 937.399 28.7487 937.773 28.814L938.263 28.898C938.757 28.982 939.21 29.0987 939.621 29.248C940.031 29.3973 940.353 29.612 940.587 29.892C940.829 30.172 940.951 30.5453 940.951 31.012C940.951 31.7027 940.694 32.2393 940.181 32.622C939.667 33.0047 938.977 33.196 938.109 33.196Z" fill="#141718"/>
<path d="M1274.5 34.5L1278 38M1277 27.5C1277 22.2533 1272.75 18 1267.5 18C1262.25 18 1258 22.2533 1258 27.5C1258 32.7467 1262.25 37 1267.5 37C1272.75 37 1277 32.7467 1277 27.5Z" stroke="#141718" stroke-width="1.5" stroke-linecap="round" stroke-linejoin="round"/>
</svg>
